<?xml version="1.0" encoding="UTF-8"?>
<svg version="1.1" xmlns="http://www.w3.org/2000/svg" width="400" height="400">
<path d="M0 0 C132 0 264 0 400 0 C400 132 400 264 400 400 C268 400 136 400 0 400 C0 268 0 136 0 0 Z " fill="#FEFEFE" transform="translate(0,0)"/>
<path d="M0 0 C82.83 0 165.66 0 251 0 C244.24480177 12.38453008 244.24480177 12.38453008 241.30078125 17.53125 C240.65471924 18.66159668 240.00865723 19.79194336 239.34301758 20.95654297 C238.66626661 22.13774586 237.9894255 23.31889712 237.3125 24.5 C236.59983183 25.74494201 235.88718563 26.98989661 235.17456055 28.23486328 C227.32758828 41.93756045 219.42871174 55.60513699 211.375 69.1875 C206.91636001 76.70811329 202.54261228 84.26565379 198.29296875 91.90625 C194.90209463 97.96014451 191.44263463 103.9753894 188 110 C208.46 110 228.92 110 250 110 C247.75138868 116.74583396 247.75138868 116.74583396 245.7421875 120.01171875 C245.2898877 120.75518555 244.83758789 121.49865234 244.37158203 122.26464844 C243.87770996 123.06418945 243.38383789 123.86373047 242.875 124.6875 C241.78560261 126.47734403 240.69710923 128.2677385 239.609375 130.05859375 C239.02607422 131.01620605 238.44277344 131.97381836 237.84179688 132.96044922 C234.56518887 138.36789483 231.34595982 143.80928408 228.125 149.25 C227.78795044 149.81888947 227.45090088 150.38777893 227.1036377 150.97390747 C221.07772745 161.14590674 215.11173306 171.35238836 209.1640625 181.5703125 C206.06508677 186.89315022 202.94435767 192.20288885 199.81567383 197.50830078 C197.4649637 201.49839056 195.12757508 205.49590983 192.80078125 209.5 C191.63813 211.50006346 190.47536685 213.50006188 189.3125 215.5 C188.44105347 216.99889771 188.44105347 216.99889771 187.55200195 218.52807617 C184.33987681 224.03751112 181.09639763 229.52614045 177.8046875 234.98828125 C177.45917343 235.56186371 177.11365936 236.13544617 176.75767517 236.72640991 C175.07998164 239.50934901 173.39770326 242.28939973 171.71020508 245.06640625 C171.10845459 246.0615625 170.5067041 247.05671875 169.88671875 248.08203125 C169.35264404 248.96093018 168.81856934 249.8398291 168.26831055 250.74536133 C166.87793898 253.05033055 166.87793898 253.05033055 166 256 C165.34 256 164.68 256 164 256 C163.72397949 256.72566162 163.44795898 257.45132324 163.16357422 258.19897461 C162.05511396 260.86732638 160.80332091 263.30264137 159.3828125 265.81640625 C158.60538696 267.19445435 158.60538696 267.19445435 157.81225586 268.6003418 C157.25546143 269.577854 156.69866699 270.55536621 156.125 271.5625 C155.25597046 273.0935437 155.25597046 273.0935437 154.36938477 274.65551758 C149.22839985 283.67409019 143.91811783 292.58391885 138.53662109 301.46044922 C135.76045548 306.04857676 133.0068867 310.65027241 130.25 315.25 C129.2344665 316.94276323 128.2188504 318.63547691 127.203125 320.328125 C126.77676758 321.0387207 126.35041016 321.74931641 125.91113281 322.48144531 C125.61045898 322.98256836 125.30978516 323.48369141 125 324 C120.97709336 322.65903112 120.56724361 320.97383496 118.5234375 317.3046875 C118.19706299 316.72544525 117.87068848 316.146203 117.53442383 315.54940796 C116.83605402 314.30768904 116.14183022 313.06363096 115.45135498 311.81750488 C114.00822309 309.2130753 112.54562772 306.61977681 111.08389282 304.02575684 C110.36327543 302.74647177 109.64368513 301.46660759 108.92514038 300.18615723 C105.83585102 294.68468552 102.60961833 289.28404552 99.3359375 283.890625 C96.15866839 278.63228745 93.08858277 273.31070189 90 268 C85.93921486 261.02070929 81.85827686 254.05840066 77.68139648 247.14794922 C73.58163512 240.3425122 69.57720835 233.48079688 65.5625 226.625 C65.18834961 225.98616882 64.81419922 225.34733765 64.42871094 224.68914795 C62.60019607 221.56691924 60.77210185 218.44444454 58.94433594 215.32177734 C52.97293686 205.12001241 46.97201254 194.93980532 40.875 184.8125 C36.8245317 178.08317753 32.86183206 171.31722238 28.98828125 164.484375 C23.63886465 155.07200728 18.08004019 145.77697148 12.5 136.5 C10.99880766 134.00071396 9.49910049 131.50054124 8 129 C7.54995605 128.25024902 7.09991211 127.50049805 6.63623047 126.72802734 C5.23192047 124.38397297 3.83402408 122.03619959 2.4375 119.6875 C1.77427734 118.58341797 1.77427734 118.58341797 1.09765625 117.45703125 C-2 112.22850318 -2 112.22850318 -2 110 C18.79 110 39.58 110 61 110 C65.95 118.58 70.9 127.16 76 136 C78.289375 139.91875 80.57875 143.8375 82.9375 147.875 C88.04594301 156.61996176 93.10448472 165.39190327 98.125 174.1875 C98.62936584 175.07106171 98.62936584 175.07106171 99.1439209 175.97247314 C102.60216969 182.03223498 106.05448786 188.09536382 109.50390625 194.16015625 C110.31480713 195.5838855 110.31480713 195.5838855 111.14208984 197.03637695 C112.13220297 198.77494052 113.12093794 200.51429011 114.10791016 202.25463867 C116.95282831 207.24903904 119.92122533 212.14656415 123 217 C125.24961663 208.63330672 126.87918293 200.30370233 128.15625 191.73828125 C128.34465454 190.50820847 128.53305908 189.27813568 128.72717285 188.01078796 C129.32344997 184.11214916 129.91214577 180.2124169 130.5 176.3125 C131.27848182 171.18316977 132.06008747 166.05432242 132.84375 160.92578125 C133.03216965 159.69171539 133.22058929 158.45764954 133.41471863 157.18618774 C134.81096266 148.09671857 136.35800081 139.04792335 138 130 C138.95007253 124.61380125 139.87461632 119.22328021 140.78979492 113.83105469 C141.05745854 112.26220741 141.32802043 110.69385215 141.60131836 109.12597656 C143.71465017 97.14170265 143.71465017 97.14170265 144 85 C139.67833935 82.38899669 135.60523526 80.35688575 130.796875 78.80859375 C128.65729717 77.84578373 127.45531301 76.83710809 126 75 C126 74.01 126 73.02 126 72 C122.7 71.01 119.4 70.02 116 69 C116 68.34 116 67.68 116 67 C114.48212891 66.61714844 114.48212891 66.61714844 112.93359375 66.2265625 C109.01056567 65.10569733 105.63084831 63.36150318 102.0625 61.375 C100.91910156 60.74335937 99.77570313 60.11171875 98.59765625 59.4609375 C97.74042969 58.97882813 96.88320312 58.49671875 96 58 C96 57.34 96 56.68 96 56 C95.18208984 55.76216797 95.18208984 55.76216797 94.34765625 55.51953125 C89.17213035 53.91821469 84.68631277 51.87701861 80.04296875 49.0859375 C78.02360563 48.01254754 76.23286041 47.45158975 74 47 C74 46.34 74 45.68 74 45 C73.46375 44.9175 72.9275 44.835 72.375 44.75 C69.12659309 43.72418729 66.71248141 42.03436106 64 40 C64 39.34 64 38.68 64 38 C63.34 38.0825 62.68 38.165 62 38.25 C57.78756306 37.89896359 54.65289323 36.03039227 51 34 C51 33.01 51 32.02 51 31 C50.46375 30.9175 49.9275 30.835 49.375 30.75 C46.82036279 29.94327246 44.94616904 28.6921318 42.76171875 27.16796875 C40.77074693 25.84801183 38.72184467 24.70656155 36.625 23.5625 C33.53170754 21.86092656 30.46266137 20.13295109 27.4375 18.3125 C26.77621094 17.91675781 26.11492187 17.52101563 25.43359375 17.11328125 C24.96050781 16.74589844 24.48742187 16.37851563 24 16 C24 15.34 24 14.68 24 14 C23.44183594 13.88269531 22.88367188 13.76539063 22.30859375 13.64453125 C15.82088319 11.8332415 10.13967353 8.25858664 5 4 C2.3205355 2.75983331 2.3205355 2.75983331 0 2 C0 1.34 0 0.68 0 0 Z " fill="#024564" transform="translate(76,50)"/>
<path d="M0 0 C82.83 0 165.66 0 251 0 C244.24480177 12.38453008 244.24480177 12.38453008 241.30078125 17.53125 C240.65471924 18.66159668 240.00865723 19.79194336 239.34301758 20.95654297 C238.66626661 22.13774586 237.9894255 23.31889712 237.3125 24.5 C236.59983183 25.74494201 235.88718563 26.98989661 235.17456055 28.23486328 C226.78453874 42.88585531 218.31677014 57.48473196 209.70336914 72.00561523 C206.11214931 78.07509351 202.61124155 84.18672303 199.18676758 90.3515625 C196.22569424 95.66097835 193.11081364 100.87012247 189.91699219 106.04272461 C187.93477433 109.28713553 186.39009711 112.47083103 185 116 C183.74609375 117.9140625 183.74609375 117.9140625 182.4375 119.625 C180.7247752 121.87136309 179.91663858 123.25008426 179 126 C178.00846217 127.00839116 177.00725485 128.00730787 176 129 C172.23319892 134.47441757 169.46463269 140.10644802 167.12109375 146.30078125 C164.0676592 153.6524303 159.92547995 160.5507153 155.75 167.3125 C153.95687965 170.23936576 152.513422 173.0122299 151.375 176.25 C149.9535329 180.12672846 148.51006056 182.76121218 146 186 C145.34 186 144.68 186 144 186 C143.814375 187.2065625 143.814375 187.2065625 143.625 188.4375 C143.41875 189.283125 143.2125 190.12875 143 191 C142.34 191.33 141.68 191.66 141 192 C139.94348559 193.70916494 139.94348559 193.70916494 139 195.75 C138.65066406 196.47316406 138.30132812 197.19632813 137.94140625 197.94140625 C137.22722574 199.50312048 136.56886839 201.09050937 135.9375 202.6875 C134.8649422 205.33314257 133.61452299 207.64548731 132 210 C131.34 210 130.68 210 130 210 C129.731875 210.804375 129.46375 211.60875 129.1875 212.4375 C128.795625 213.283125 128.40375 214.12875 128 215 C127.01 215.33 126.02 215.66 125 216 C125 217.32 125 218.64 125 220 C124.34 219.67 123.68 219.34 123 219 C123.28731995 217.71824638 123.28731995 217.71824638 123.58044434 216.41059875 C125.39655609 208.15020697 126.89788596 199.9074124 128.15625 191.54296875 C128.34465454 190.31572586 128.53305908 189.08848297 128.72717285 187.8240509 C129.32202544 183.94578639 129.91139569 180.06671728 130.5 176.1875 C132.85032581 160.76143156 135.21667012 145.35422496 138 130 C138.94984369 124.61376017 139.87461613 119.22328133 140.78979492 113.83105469 C141.05745854 112.26220741 141.32802043 110.69385215 141.60131836 109.12597656 C143.71465017 97.14170265 143.71465017 97.14170265 144 85 C139.67833935 82.38899669 135.60523526 80.35688575 130.796875 78.80859375 C128.65729717 77.84578373 127.45531301 76.83710809 126 75 C126 74.01 126 73.02 126 72 C122.7 71.01 119.4 70.02 116 69 C116 68.34 116 67.68 116 67 C114.48212891 66.61714844 114.48212891 66.61714844 112.93359375 66.2265625 C109.01056567 65.10569733 105.63084831 63.36150318 102.0625 61.375 C100.91910156 60.74335937 99.77570313 60.11171875 98.59765625 59.4609375 C97.74042969 58.97882813 96.88320312 58.49671875 96 58 C96 57.34 96 56.68 96 56 C95.18208984 55.76216797 95.18208984 55.76216797 94.34765625 55.51953125 C89.17213035 53.91821469 84.68631277 51.87701861 80.04296875 49.0859375 C78.02360563 48.01254754 76.23286041 47.45158975 74 47 C74 46.34 74 45.68 74 45 C73.46375 44.9175 72.9275 44.835 72.375 44.75 C69.12659309 43.72418729 66.71248141 42.03436106 64 40 C64 39.34 64 38.68 64 38 C63.34 38.0825 62.68 38.165 62 38.25 C57.78756306 37.89896359 54.65289323 36.03039227 51 34 C51 33.01 51 32.02 51 31 C50.46375 30.9175 49.9275 30.835 49.375 30.75 C46.82036279 29.94327246 44.94616904 28.6921318 42.76171875 27.16796875 C40.77074693 25.84801183 38.72184467 24.70656155 36.625 23.5625 C33.53170754 21.86092656 30.46266137 20.13295109 27.4375 18.3125 C26.77621094 17.91675781 26.11492187 17.52101563 25.43359375 17.11328125 C24.96050781 16.74589844 24.48742187 16.37851563 24 16 C24 15.34 24 14.68 24 14 C23.44183594 13.88269531 22.88367188 13.76539063 22.30859375 13.64453125 C15.82088319 11.8332415 10.13967353 8.25858664 5 4 C2.3205355 2.75983331 2.3205355 2.75983331 0 2 C0 1.34 0 0.68 0 0 Z " fill="#F6A732" transform="translate(76,50)"/>
<path d="M0 0 C0.66 0 1.32 0 2 0 C2 0.66 2 1.32 2 2 C2.845625 2.226875 3.69125 2.45375 4.5625 2.6875 C7.84329724 3.94016804 10.14276018 5.52188608 12.921875 7.625 C16.98297428 10.31204313 21.53028283 12.10057227 26 14 C26 14.66 26 15.32 26 16 C26.680625 16.2475 27.36125 16.495 28.0625 16.75 C32.63039328 18.69378437 36.76949054 21.17074363 40.875 23.9375 C44.79550702 26.52503463 48.87277343 28.76212604 53 31 C53 31.99 53 32.98 53 34 C54.1446875 34.185625 54.1446875 34.185625 55.3125 34.375 C58 35 58 35 61 37 C61.86625 37.165 62.7325 37.33 63.625 37.5 C64.40875 37.665 65.1925 37.83 66 38 C66.33 38.66 66.66 39.32 67 40 C69.90050829 41.88141079 72.88656995 43.50094109 76 45 C76 45.66 76 46.32 76 47 C76.73605469 47.11601563 77.47210938 47.23203125 78.23046875 47.3515625 C81.01912019 48.00447666 82.87446826 48.90415818 85.3125 50.375 C89.43637315 52.76214134 93.50011465 54.44549415 98 56 C98 56.66 98 57.32 98 58 C98.825 58.226875 99.65 58.45375 100.5 58.6875 C104.07798622 60.02924483 106.85235967 61.75182679 110.03125 63.82421875 C112.56819393 65.33933804 115.15934222 66.21881911 118 67 C118 67.66 118 68.32 118 69 C119.918125 69.4640625 119.918125 69.4640625 121.875 69.9375 C124.10101675 70.47605244 125.94739999 70.9737 128 72 C128.41378906 72.79148437 128.82757813 73.58296875 129.25390625 74.3984375 C131.45678619 77.68058077 133.25947016 78.28836122 136.9375 79.625 C144.95523624 82.58570062 144.95523624 82.58570062 147 85 C147.95346508 93.44626139 145.83002288 102.00006317 144.375 110.3125 C144.10222585 111.90464805 143.83026845 113.49693622 143.55908203 115.08935547 C142.9944677 118.400471 142.42635281 121.71095593 141.85546875 125.02099609 C140.63176657 132.12744211 139.44062234 139.23930745 138.25415039 146.35205078 C138.00107527 147.86919785 137.74765645 149.38628764 137.49389648 150.90332031 C135.88432154 160.52963701 134.3366934 170.16240019 132.875 179.8125 C131.60384452 188.17743843 130.2872258 196.53260184 128.875 204.875 C128.63692627 206.32096558 128.63692627 206.32096558 128.39404297 207.79614258 C128.24080566 208.6858374 128.08756836 209.57553223 127.9296875 210.4921875 C127.79804199 211.26933105 127.66639648 212.04647461 127.53076172 212.84716797 C126.97168451 215.11485096 126.11973305 216.95731436 125 219 C124.71503662 218.50000488 124.43007324 218.00000977 124.13647461 217.48486328 C113.20453662 198.31126047 102.20574633 179.17666399 91.0625 160.125 C81.21320988 143.27764099 71.5245277 126.33574348 62.00732422 109.29858398 C59.68944181 105.17009797 57.27292541 101.10764386 54.8125 97.0625 C50.00912125 89.16534615 45.53061965 81.08854015 41.0480957 73.00610352 C34.45840389 61.1303993 34.45840389 61.1303993 27.0625 49.75 C24.14703264 45.44911474 21.87885518 40.8911531 19.60791016 36.23242188 C17.0241425 30.95942666 14.09674324 25.98279165 11 21 C0 2.9005102 0 2.9005102 0 0 Z " fill="#75B9D8" transform="translate(74,50)"/>
<path d="M0 0 C0 3.26359243 -0.52990546 4.34977865 -2.0625 7.15625 C-2.52164795 8.0004248 -2.9807959 8.84459961 -3.45385742 9.71435547 C-4.219198 11.09324951 -4.219198 11.09324951 -5 12.5 C-5.79337769 13.94270264 -5.79337769 13.94270264 -6.6027832 15.41455078 C-11.64441711 24.50616437 -16.94259532 33.44225357 -22.27197266 42.36669922 C-26.24633755 49.02507565 -30.14542871 55.71138568 -33.91088867 62.48974609 C-36.93535738 67.92407784 -40.09057239 73.2764304 -43.26000977 78.62719727 C-46.57252251 84.23462814 -49.77190683 89.90002132 -52.94165039 95.58911133 C-54.85685451 99.01365708 -56.8213595 102.3833508 -58.9375 105.6875 C-61.00588728 108.78332317 -61.00588728 108.78332317 -62 111.5625 C-63.21646552 114.52763471 -64.94325095 116.81280985 -66.87890625 119.3515625 C-68.19132292 121.12060315 -68.19132292 121.12060315 -69 124 C-69.99153783 125.00839116 -70.99274515 126.00730787 -72 127 C-75.76680108 132.47441757 -78.53536731 138.10644802 -80.87890625 144.30078125 C-83.9323408 151.6524303 -88.07452005 158.5507153 -92.25 165.3125 C-94.04312035 168.23936576 -95.486578 171.0122299 -96.625 174.25 C-98.0464671 178.12672846 -99.48993944 180.76121218 -102 184 C-102.66 184 -103.32 184 -104 184 C-104.12375 184.804375 -104.2475 185.60875 -104.375 186.4375 C-104.58125 187.283125 -104.7875 188.12875 -105 189 C-105.66 189.33 -106.32 189.66 -107 190 C-108.05651441 191.70916494 -108.05651441 191.70916494 -109 193.75 C-109.34933594 194.47316406 -109.69867188 195.19632813 -110.05859375 195.94140625 C-110.77277426 197.50312048 -111.43113161 199.09050937 -112.0625 200.6875 C-113.1350578 203.33314257 -114.38547701 205.64548731 -116 208 C-116.66 208 -117.32 208 -118 208 C-118.268125 208.804375 -118.53625 209.60875 -118.8125 210.4375 C-119.204375 211.283125 -119.59625 212.12875 -120 213 C-120.99 213.33 -121.98 213.66 -123 214 C-123 215.32 -123 216.64 -123 218 C-123.66 217.67 -124.32 217.34 -125 217 C-124.80845337 216.14549759 -124.61690674 215.29099518 -124.41955566 214.41059875 C-122.60344391 206.15020697 -121.10211404 197.9074124 -119.84375 189.54296875 C-119.65534546 188.31572586 -119.46694092 187.08848297 -119.27282715 185.8240509 C-118.67797456 181.94578639 -118.08860431 178.06671728 -117.5 174.1875 C-116.72127472 169.07643437 -115.93980855 163.96579556 -115.15625 158.85546875 C-114.96805695 157.62477661 -114.77986389 156.39408447 -114.58596802 155.12609863 C-113.60531468 148.75846665 -112.56873092 142.40959914 -111.3984375 136.07421875 C-110.42079713 130.71424861 -109.64010701 125.36989783 -108.98260498 119.96141052 C-108.51578124 116.14473343 -108.00762221 112.33399291 -107.49707031 108.52294922 C-107.24794504 106.58258374 -107.0179455 104.63967173 -106.80664062 102.69482422 C-104.81993762 84.70914171 -104.81993762 84.70914171 -98.34127808 78.82015991 C-95.65971166 76.69848048 -92.87403115 74.85610912 -90 73 C-88.10685257 71.4806732 -86.22852577 69.94241933 -84.375 68.375 C-82.58357019 66.91637572 -80.79190422 65.45804143 -79 64 C-77.14560344 62.47944699 -75.29143744 60.95861276 -73.4375 59.4375 C-70.10092023 56.70629124 -66.74977129 53.99632827 -63.375 51.3125 C-56.50963619 45.83772822 -49.75745639 40.22433161 -42.984375 34.63623047 C-35.37331111 28.3604738 -27.7138165 22.14904865 -20 16 C-18.33307886 14.66698482 -16.66641301 13.33365035 -15 12 C-10 8 -5 4 0 0 Z " fill="#BB1413" transform="translate(324,52)"/>
<path d="M0 0 C82.83 0 165.66 0 251 0 C249.084634 2.87304901 247.63608583 3.95089611 244.796875 5.75 C241.28581274 8.1924781 238.16938145 11.13629493 235 14 C234.01 12.515 234.01 12.515 233 11 C233.99 10.319375 233.99 10.319375 235 9.625 C235.66 9.08875 236.32 8.5525 237 8 C237 7.34 237 6.68 237 6 C237.66 6 238.32 6 239 6 C239 5.34 239 4.68 239 4 C237.95840131 4.00092179 236.91680262 4.00184359 235.84364033 4.00279331 C210.51420266 4.02498027 185.18476626 4.04141978 159.85532093 4.05181217 C147.60626188 4.05697126 135.35720924 4.06400663 123.1081543 4.07543945 C112.43348028 4.08539807 101.75881091 4.09185625 91.08413237 4.09408849 C85.43055661 4.09539359 79.77699413 4.09846681 74.12342262 4.10573006 C68.80395393 4.11250881 63.48450403 4.11461316 58.16503143 4.11310768 C56.21109859 4.11338317 54.25716512 4.1153773 52.30323601 4.11920547 C49.63811335 4.12417165 46.97306188 4.12298742 44.30793762 4.12025452 C43.14499018 4.12462378 43.14499018 4.12462378 41.95854884 4.12908131 C38.16832255 4.11855741 34.69023765 3.85878638 31 3 C28.8161 2.83694259 26.62694819 2.73570338 24.4375 2.6875 C23.32246094 2.65011719 22.20742187 2.61273438 21.05859375 2.57421875 C17.39238493 3.08458498 16.28304929 4.169912 14 7 C14.78375 7.28875 15.5675 7.5775 16.375 7.875 C19 9 19 9 21 11 C22.98821313 11.39764263 24.98944339 11.73775349 27 12 C27 12.66 27 13.32 27 14 C27.66 14 28.32 14 29 14 C29.33 14.99 29.66 15.98 30 17 C31.95927833 18.07760308 33.97186629 19.05836649 36 20 C37.52732566 20.82137373 39.04786824 21.6554474 40.5625 22.5 C41.33335938 22.92925781 42.10421875 23.35851562 42.8984375 23.80078125 C44.51734104 24.72457937 46.10895257 25.69631906 47.6875 26.6875 C50.36717887 28.20839882 53.05695202 29.11024131 56 30 C56 31.32 56 32.64 56 34 C57.2375 34.350625 58.475 34.70125 59.75 35.0625 C65.93289177 37.11360285 71.67391013 40.26002149 77 44 C77 44.66 77 45.32 77 46 C77.86625 46.2475 78.7325 46.495 79.625 46.75 C83.67969543 48.25173905 87.9892331 49.9784662 90 54 C85.35842854 52.67383673 81.98319666 50.68432819 78 48 C75.77397385 47.23060319 75.77397385 47.23060319 74 47 C74 46.34 74 45.68 74 45 C73.46375 44.9175 72.9275 44.835 72.375 44.75 C69.12659309 43.72418729 66.71248141 42.03436106 64 40 C64 39.34 64 38.68 64 38 C63.34 38.0825 62.68 38.165 62 38.25 C57.78756306 37.89896359 54.65289323 36.03039227 51 34 C51 33.01 51 32.02 51 31 C50.46375 30.9175 49.9275 30.835 49.375 30.75 C46.82036279 29.94327246 44.94616904 28.6921318 42.76171875 27.16796875 C40.77074693 25.84801183 38.72184467 24.70656155 36.625 23.5625 C33.53170754 21.86092656 30.46266137 20.13295109 27.4375 18.3125 C26.77621094 17.91675781 26.11492187 17.52101563 25.43359375 17.11328125 C24.96050781 16.74589844 24.48742187 16.37851563 24 16 C24 15.34 24 14.68 24 14 C23.44183594 13.88269531 22.88367188 13.76539063 22.30859375 13.64453125 C15.82088319 11.8332415 10.13967353 8.25858664 5 4 C2.3205355 2.75983331 2.3205355 2.75983331 0 2 C0 1.34 0 0.68 0 0 Z " fill="#F1A838" transform="translate(76,50)"/>
<path d="M0 0 C0.33 0 0.66 0 1 0 C1 4.29 1 8.58 1 13 C0.34 13 -0.32 13 -1 13 C-0.98839844 13.67804688 -0.97679687 14.35609375 -0.96484375 15.0546875 C-0.79863481 32.19795222 -0.79863481 32.19795222 -4 37 C-4.27441372 39.1270431 -4.27441372 39.1270431 -4.1953125 41.44921875 C-4.18886719 42.29677734 -4.18242187 43.14433594 -4.17578125 44.01757812 C-4.15064453 45.33918945 -4.15064453 45.33918945 -4.125 46.6875 C-4.11146484 48.02651367 -4.11146484 48.02651367 -4.09765625 49.39257812 C-4.07409748 51.59532314 -4.04120329 53.79752588 -4 56 C-3.37351563 55.97679687 -2.74703125 55.95359375 -2.1015625 55.9296875 C-1.28429687 55.91164062 -0.46703125 55.89359375 0.375 55.875 C1.18710938 55.85179687 1.99921875 55.82859375 2.8359375 55.8046875 C5 56 5 56 7 58 C7.66 58 8.32 58 9 58 C8.9071875 56.8553125 8.9071875 56.8553125 8.8125 55.6875 C9.04061654 52.41782957 9.67509548 52.15268937 12 50 C12.515625 48.96875 13.03125 47.9375 13.5625 46.875 C15 44 15 44 17 43 C17.495 42.175 17.99 41.35 18.5 40.5 C20 38 20 38 22 37 C20.82931066 41.36347847 19.06858794 44.30115151 16.359375 47.87890625 C14.09996137 51.40437062 12.7423502 55.2984572 11.1953125 59.17578125 C9.78092516 62.517618 8.27242044 65.17906428 6 68 C5.34 68 4.68 68 4 68 C3.87625 68.804375 3.7525 69.60875 3.625 70.4375 C3.315625 71.7059375 3.315625 71.7059375 3 73 C2.01 73.495 2.01 73.495 1 74 C-0.05651441 75.70916494 -0.05651441 75.70916494 -1 77.75 C-1.34933594 78.47316406 -1.69867188 79.19632812 -2.05859375 79.94140625 C-2.77277426 81.50312048 -3.43113161 83.09050937 -4.0625 84.6875 C-5.1350578 87.33314257 -6.38547701 89.64548731 -8 92 C-8.66 92 -9.32 92 -10 92 C-10.268125 92.804375 -10.53625 93.60875 -10.8125 94.4375 C-11.4003125 95.7059375 -11.4003125 95.7059375 -12 97 C-13.485 97.495 -13.485 97.495 -15 98 C-15 99.32 -15 100.64 -15 102 C-15.66 101.67 -16.32 101.34 -17 101 C-16.80845337 100.14549759 -16.61690674 99.29099518 -16.41955566 98.41059875 C-14.60344391 90.15020697 -13.10211404 81.9074124 -11.84375 73.54296875 C-11.65534546 72.31572586 -11.46694092 71.08848297 -11.27282715 69.8240509 C-10.67797456 65.94578639 -10.08860431 62.06671728 -9.5 58.1875 C-8.72127473 53.07643444 -7.94002289 47.96576268 -7.15625 42.85546875 C-6.96928055 41.63587967 -6.7823111 40.41629059 -6.5896759 39.15974426 C-5.36352101 31.21456055 -4.05186886 23.29182031 -2.61401367 15.38232422 C-1.68494764 10.26451874 -0.84065747 5.13295562 0 0 Z " fill="#B71514" transform="translate(216,168)"/>
<path d="M0 0 C82.83 0 165.66 0 251 0 C250.34 0.99 249.68 1.98 249 3 C248.67 2.67 248.34 2.34 248 2 C244.89023287 1.90194623 241.80265859 1.87009441 238.69248962 1.87974548 C237.20887848 1.87846385 237.20887848 1.87846385 235.69529539 1.87715632 C232.35405592 1.87549852 229.01286577 1.88102777 225.67163086 1.88647461 C223.28727723 1.88675644 220.90292352 1.88659882 218.51856995 1.8860321 C212.69868321 1.88577395 206.87881284 1.89012528 201.05892985 1.89646976 C194.28944865 1.90360368 187.51996981 1.90511365 180.75048537 1.90625793 C168.67732206 1.90844878 156.6041655 1.91510974 144.53100586 1.92456055 C132.80021193 1.93373383 121.06941983 1.94081507 109.33862305 1.94506836 C108.61603284 1.94533108 107.89344263 1.94559381 107.14895575 1.94586449 C103.52408116 1.94716949 99.89920655 1.94843321 96.27433193 1.94967639 C66.18288323 1.96005001 36.0914424 1.97774333 6 2 C6.98267859 3.20561184 6.98267859 3.20561184 8.84765625 3.09765625 C10.8984375 3.06510417 12.94921875 3.03255208 15 3 C14.67 4.32 14.34 5.64 14 7 C14.78375 7.28875 15.5675 7.5775 16.375 7.875 C19 9 19 9 21 11 C22.98821313 11.39764263 24.98944339 11.73775349 27 12 C27 12.66 27 13.32 27 14 C27.66 14 28.32 14 29 14 C29.33 14.99 29.66 15.98 30 17 C31.95927833 18.07760308 33.97186629 19.05836649 36 20 C37.52732566 20.82137373 39.04786824 21.6554474 40.5625 22.5 C41.33335938 22.92925781 42.10421875 23.35851562 42.8984375 23.80078125 C44.51734104 24.72457937 46.10895257 25.69631906 47.6875 26.6875 C50.36717887 28.20839882 53.05695202 29.11024131 56 30 C56 31.32 56 32.64 56 34 C57.2375 34.350625 58.475 34.70125 59.75 35.0625 C65.93289177 37.11360285 71.67391013 40.26002149 77 44 C77 44.66 77 45.32 77 46 C77.86625 46.2475 78.7325 46.495 79.625 46.75 C83.67969543 48.25173905 87.9892331 49.9784662 90 54 C85.35842854 52.67383673 81.98319666 50.68432819 78 48 C75.77397385 47.23060319 75.77397385 47.23060319 74 47 C74 46.34 74 45.68 74 45 C73.46375 44.9175 72.9275 44.835 72.375 44.75 C69.12659309 43.72418729 66.71248141 42.03436106 64 40 C64 39.34 64 38.68 64 38 C63.34 38.0825 62.68 38.165 62 38.25 C57.78756306 37.89896359 54.65289323 36.03039227 51 34 C51 33.01 51 32.02 51 31 C50.46375 30.9175 49.9275 30.835 49.375 30.75 C46.82036279 29.94327246 44.94616904 28.6921318 42.76171875 27.16796875 C40.77074693 25.84801183 38.72184467 24.70656155 36.625 23.5625 C33.53170754 21.86092656 30.46266137 20.13295109 27.4375 18.3125 C26.77621094 17.91675781 26.11492187 17.52101563 25.43359375 17.11328125 C24.96050781 16.74589844 24.48742187 16.37851563 24 16 C24 15.34 24 14.68 24 14 C23.44183594 13.88269531 22.88367188 13.76539063 22.30859375 13.64453125 C15.82088319 11.8332415 10.13967353 8.25858664 5 4 C2.3205355 2.75983331 2.3205355 2.75983331 0 2 C0 1.34 0 0.68 0 0 Z " fill="#E6AE56" transform="translate(76,50)"/>
<path d="M0 0 C0.33 0 0.66 0 1 0 C1 4.29 1 8.58 1 13 C0.34 13 -0.32 13 -1 13 C-0.98839844 13.67804688 -0.97679687 14.35609375 -0.96484375 15.0546875 C-0.79863481 32.19795222 -0.79863481 32.19795222 -4 37 C-4.42488263 39.36590469 -4.42488263 39.36590469 -4.5625 42 C-4.63726562 42.969375 -4.71203125 43.93875 -4.7890625 44.9375 C-4.85867187 45.948125 -4.92828125 46.95875 -5 48 C-5.13779436 50.00056994 -5.28329313 52.0006282 -5.4375 54 C-5.49808594 54.886875 -5.55867187 55.77375 -5.62109375 56.6875 C-6 59 -6 59 -8 62 C-8.25082077 64.32579259 -8.40420836 66.66268398 -8.5 69 C-8.81969672 75.4607016 -9.64562607 81.67520522 -11 88 C-10.01 88 -9.02 88 -8 88 C-7.9175 87.05125 -7.835 86.1025 -7.75 85.125 C-7.37875 83.578125 -7.37875 83.578125 -7 82 C-5.68352881 81.30062468 -4.34977849 80.63270867 -3 80 C-2.7834375 78.9171875 -2.7834375 78.9171875 -2.5625 77.8125 C-1.76149184 73.80745922 0.52095589 71.17427419 3 68 C3.33 69.32 3.66 70.64 4 72 C2.515 72.99 2.515 72.99 1 74 C-0.1479427 75.77570706 -0.1479427 75.77570706 -1.0625 77.8125 C-1.4028125 78.52664062 -1.743125 79.24078125 -2.09375 79.9765625 C-2.78941545 81.52981553 -3.4367725 83.1047775 -4.0625 84.6875 C-5.1350578 87.33314257 -6.38547701 89.64548731 -8 92 C-8.66 92 -9.32 92 -10 92 C-10.268125 92.804375 -10.53625 93.60875 -10.8125 94.4375 C-11.4003125 95.7059375 -11.4003125 95.7059375 -12 97 C-13.485 97.495 -13.485 97.495 -15 98 C-15 99.32 -15 100.64 -15 102 C-15.66 101.67 -16.32 101.34 -17 101 C-16.80845337 100.14549759 -16.61690674 99.29099518 -16.41955566 98.41059875 C-14.60344391 90.15020697 -13.10211404 81.9074124 -11.84375 73.54296875 C-11.65534546 72.31572586 -11.46694092 71.08848297 -11.27282715 69.8240509 C-10.67797456 65.94578639 -10.08860431 62.06671728 -9.5 58.1875 C-8.72127473 53.07643444 -7.94002289 47.96576268 -7.15625 42.85546875 C-6.96928055 41.63587967 -6.7823111 40.41629059 -6.5896759 39.15974426 C-5.36352101 31.21456055 -4.05186886 23.29182031 -2.61401367 15.38232422 C-1.68494764 10.26451874 -0.84065747 5.13295562 0 0 Z " fill="#9D2426" transform="translate(216,168)"/>
<path d="M0 0 C2.8125 -0.1875 2.8125 -0.1875 6 0 C7.02104551 0.97850195 8.0206121 1.97980427 9 3 C12.10839021 3.7269226 12.10839021 3.7269226 15 4 C15 4.66 15 5.32 15 6 C15.66 6 16.32 6 17 6 C17.33 6.99 17.66 7.98 18 9 C19.95927833 10.07760308 21.97186629 11.05836649 24 12 C25.52732566 12.82137373 27.04786824 13.6554474 28.5625 14.5 C29.33335938 14.92925781 30.10421875 15.35851562 30.8984375 15.80078125 C32.51734104 16.72457937 34.10895257 17.69631906 35.6875 18.6875 C38.36717887 20.20839882 41.05695202 21.11024131 44 22 C44 23.32 44 24.64 44 26 C45.2375 26.350625 46.475 26.70125 47.75 27.0625 C53.93289177 29.11360285 59.67391013 32.26002149 65 36 C65 36.66 65 37.32 65 38 C65.86625 38.2475 66.7325 38.495 67.625 38.75 C71.67969543 40.25173905 75.9892331 41.9784662 78 46 C73.35842854 44.67383673 69.98319666 42.68432819 66 40 C63.77397385 39.23060319 63.77397385 39.23060319 62 39 C62 38.34 62 37.68 62 37 C61.46375 36.9175 60.9275 36.835 60.375 36.75 C57.12659309 35.72418729 54.71248141 34.03436106 52 32 C52 31.34 52 30.68 52 30 C51.34 30.0825 50.68 30.165 50 30.25 C45.78756306 29.89896359 42.65289323 28.03039227 39 26 C39 25.01 39 24.02 39 23 C38.46375 22.9175 37.9275 22.835 37.375 22.75 C34.82036279 21.94327246 32.94616904 20.6921318 30.76171875 19.16796875 C28.77074693 17.84801183 26.72184467 16.70656155 24.625 15.5625 C21.53170754 13.86092656 18.46266137 12.13295109 15.4375 10.3125 C14.77621094 9.91675781 14.11492187 9.52101563 13.43359375 9.11328125 C12.96050781 8.74589844 12.48742187 8.37851563 12 8 C12 7.34 12 6.68 12 6 C11.42765625 5.87753906 10.8553125 5.75507812 10.265625 5.62890625 C7.90046809 4.97237132 5.92793203 4.06276488 3.75 2.9375 C3.04359375 2.57527344 2.3371875 2.21304688 1.609375 1.83984375 C1.07828125 1.56269531 0.5471875 1.28554688 0 1 C0 0.67 0 0.34 0 0 Z " fill="#DBAD59" transform="translate(88,58)"/>
<path d="M0 0 C0.33 0 0.66 0 1 0 C1 4.29 1 8.58 1 13 C0.34 13 -0.32 13 -1 13 C-0.98839844 13.67804688 -0.97679687 14.35609375 -0.96484375 15.0546875 C-0.79863481 32.19795222 -0.79863481 32.19795222 -4 37 C-4.42488263 39.36590469 -4.42488263 39.36590469 -4.5625 42 C-4.63726562 42.969375 -4.71203125 43.93875 -4.7890625 44.9375 C-4.85867187 45.948125 -4.92828125 46.95875 -5 48 C-5.13779436 50.00056994 -5.28329313 52.0006282 -5.4375 54 C-5.49808594 54.886875 -5.55867187 55.77375 -5.62109375 56.6875 C-6 59 -6 59 -8 62 C-8.39013716 63.9896995 -8.73202649 65.99019869 -9 68 C-9.33 68 -9.66 68 -10 68 C-10.11280482 62.59138487 -9.77197206 57.52188337 -8.828125 52.1875 C-8.70561371 51.46375183 -8.58310242 50.74000366 -8.45687866 49.99432373 C-8.06066631 47.66179684 -7.6554102 45.33094403 -7.25 43 C-6.97509321 41.39106238 -6.70084633 39.78201188 -6.42724609 38.17285156 C-5.88058043 34.96172121 -5.33078094 31.75115389 -4.77832031 28.54101562 C-3.70274786 22.2814015 -2.66348757 16.01586517 -1.625 9.75 C-1.30488754 7.82809167 -0.98459856 5.90621273 -0.6640625 3.984375 C-0.53467285 3.20803711 -0.4052832 2.43169922 -0.27197266 1.63183594 C-0.18222168 1.09333008 -0.0924707 0.55482422 0 0 Z " fill="#97343C" transform="translate(216,168)"/>
<path d="M0 0 C0.33 0.66 0.66 1.32 1 2 C1.99 2 2.98 2 4 2 C4.33 2.99 4.66 3.98 5 5 C4.51789063 5.38671875 4.03578125 5.7734375 3.5390625 6.171875 C2.90742188 6.69265625 2.27578125 7.2134375 1.625 7.75 C0.99851562 8.26046875 0.37203125 8.7709375 -0.2734375 9.296875 C-2.08312318 11.08199481 -3.00117455 12.67949644 -4 15 C-4.66 15 -5.32 15 -6 15 C-6.1546875 16.11375 -6.1546875 16.11375 -6.3125 17.25 C-7.04933797 20.1973519 -7.94799142 21.78383074 -10 24 C-10.66 24 -11.32 24 -12 24 C-12.268125 25.093125 -12.53625 26.18625 -12.8125 27.3125 C-13.94822865 30.83923634 -14.39100672 31.70408592 -17 34 C-18.03357147 35.64605826 -19.04060332 37.30963442 -20 39 C-20 31.44211405 -14.34475312 22.94610498 -10 17 C-9.34 17 -8.68 17 -8 17 C-7.9175 16.46375 -7.835 15.9275 -7.75 15.375 C-6.73817124 12.17087558 -4.86150595 9.79225892 -3 7 C-1.89690257 4.69647302 -0.94944477 2.37361193 0 0 Z " fill="#223D5A" transform="translate(263,159)"/>
<path d="M0 0 C0 3.50591923 -0.85286306 4.94374756 -2.51953125 8 C-3.04740234 8.969375 -3.57527344 9.93875 -4.11914062 10.9375 C-4.67794922 11.948125 -5.23675781 12.95875 -5.8125 14 C-6.35970703 15.010625 -6.90691406 16.02125 -7.47070312 17.0625 C-11.97475588 25.27352466 -11.97475588 25.27352466 -15 28 C-15 26.35 -15 24.7 -15 23 C-14.34 23 -13.68 23 -13 23 C-12.31292445 20.50935112 -12 18.62113708 -12 16 C-13.94009522 14.29467677 -13.94009522 14.29467677 -16 13 C-13.89746067 11.20639298 -11.79305667 9.41505881 -9.6875 7.625 C-8.79514648 6.86316406 -8.79514648 6.86316406 -7.88476562 6.0859375 C-7.01948242 5.35117187 -7.01948242 5.35117187 -6.13671875 4.6015625 C-5.60780029 4.15119629 -5.07888184 3.70083008 -4.53393555 3.23681641 C-3.08837533 2.07125727 -1.54505544 1.03003696 0 0 Z " fill="#A92919" transform="translate(324,52)"/>
<path d="M0 0 C0.66 0.33 1.32 0.66 2 1 C0.62712658 4.69876091 -1.06355453 7.9514476 -3.125 11.3125 C-3.66382813 12.19550781 -4.20265625 13.07851563 -4.7578125 13.98828125 C-5.16773438 14.65214844 -5.57765625 15.31601562 -6 16 C-9.84556115 14.71814628 -10.42068027 13.21420223 -12.28125 9.7890625 C-13 8 -13 8 -12.75 5.5625 C-12.5025 5.046875 -12.255 4.53125 -12 4 C-11.01 4 -10.02 4 -9 4 C-7.61733734 3.74713951 -6.24182751 3.45283686 -4.875 3.125 C-4.17117187 2.96257812 -3.46734375 2.80015625 -2.7421875 2.6328125 C-0.78786972 2.14907779 -0.78786972 2.14907779 0 0 Z " fill="#0E4A62" transform="translate(207,358)"/>
<path d="M0 0 C1.98 0.33 3.96 0.66 6 1 C2.33797498 4.90616002 -1.65453764 8.17930929 -5.85546875 11.4921875 C-9.80681698 14.62245941 -13.67868862 17.84917135 -17.5625 21.0625 C-23.30206359 25.80513578 -29.0649326 30.50219963 -35 35 C-35 34.01 -35 33.02 -35 32 C-29.65116279 27 -29.65116279 27 -27 27 C-27.33 26.01 -27.66 25.02 -28 24 C-27.401875 23.896875 -26.80375 23.79375 -26.1875 23.6875 C-23.62426226 22.881911 -22.87188311 21.89837202 -21 20 C-18.64478457 18.17358941 -16.25715219 16.39645258 -13.86328125 14.62109375 C-12.94095703 13.81865234 -12.94095703 13.81865234 -12 13 C-12 12.34 -12 11.68 -12 11 C-11.278125 10.7525 -10.55625 10.505 -9.8125 10.25 C-5.59158687 8.37403861 -2.7062052 6.47966804 -0.6875 2.25 C-0.460625 1.5075 -0.23375 0.765 0 0 Z " fill="#F89843" transform="translate(301,65)"/>
<path d="M0 0 C7.71929825 2.28070175 7.71929825 2.28070175 10 5 C10.57413099 13.19441498 8.96636447 21.02701951 7.5 29.0625 C7.25840831 30.41849415 7.01751742 31.77461335 6.77734375 33.13085938 C6.19175552 36.42186521 5.59913707 39.71143861 5 43 C4.67 43 4.34 43 4 43 C3.67 38.71 3.34 34.42 3 30 C3.66 30 4.32 30 5 30 C4.98839844 29.32453125 4.97679687 28.6490625 4.96484375 27.953125 C4.95582031 27.06109375 4.94679687 26.1690625 4.9375 25.25 C4.92589844 24.36828125 4.91429687 23.4865625 4.90234375 22.578125 C4.99173802 20.2181162 5.33087179 18.25501476 6 16 C6.66 16 7.32 16 8 16 C8 13.36 8 10.72 8 8 C7.01 7.67 6.02 7.34 5 7 C5 6.34 5 5.68 5 5 C4.175 4.505 3.35 4.01 2.5 3.5 C1.675 3.005 0.85 2.51 0 2 C0 1.34 0 0.68 0 0 Z " fill="#9CADB5" transform="translate(211,130)"/>
<path d="M0 0 C0.495 0.99 0.495 0.99 1 2 C-19.46 2 -39.92 2 -61 2 C-58.69 5.96 -56.38 9.92 -54 14 C-54.33 14.66 -54.66 15.32 -55 16 C-58 15 -58 15 -59.16796875 13.36328125 C-59.50441406 12.68652344 -59.84085937 12.00976562 -60.1875 11.3125 C-60.53167969 10.64863281 -60.87585938 9.98476562 -61.23046875 9.30078125 C-62 7 -62 7 -62 1 C-31.31 0.505 -31.31 0.505 0 0 Z " fill="#C3D8E2" transform="translate(135,158)"/>
<path d="M0 0 C1.65 0 3.3 0 5 0 C2.23478935 3.68264036 -0.64294837 6.52027628 -4.25 9.375 C-8.43950439 12.72323845 -12.48873377 16.16118834 -16.44140625 19.78515625 C-18 21 -18 21 -20 21 C-20 20.34 -20 19.68 -20 19 C-19.34 19 -18.68 19 -18 19 C-18 18.01 -18 17.02 -18 16 C-17.01 16 -16.02 16 -15 16 C-15 15.34 -15 14.68 -15 14 C-14.34 14 -13.68 14 -13 14 C-12.67 13.01 -12.34 12.02 -12 11 C-9.4375 9.3125 -9.4375 9.3125 -7 8 C-8.32 7.34 -9.64 6.68 -11 6 C-10.67 4.35 -10.34 2.7 -10 1 C-8.68 1 -7.36 1 -6 1 C-5.67 2.32 -5.34 3.64 -5 5 C-4.01 5 -3.02 5 -2 5 C-1.34 3.35 -0.68 1.7 0 0 Z " fill="#F7A53A" transform="translate(242,114)"/>
<path d="M0 0 C1.98 0.66 3.96 1.32 6 2 C6 2.66 6 3.32 6 4 C6.84433594 4.25910156 7.68867188 4.51820312 8.55859375 4.78515625 C12.21315767 6.07524635 15.61825322 7.67992662 19.0625 9.4375 C19.66126953 9.73720703 20.26003906 10.03691406 20.87695312 10.34570312 C27.87480007 13.87911763 27.87480007 13.87911763 31 16 C31 16.66 31 17.32 31 18 C31.86625 18.2475 32.7325 18.495 33.625 18.75 C37.67969543 20.25173905 41.9892331 21.9784662 44 26 C39.35842854 24.67383673 35.98319666 22.68432819 32 20 C29.77397385 19.23060319 29.77397385 19.23060319 28 19 C28 18.34 28 17.68 28 17 C27.46375 16.9175 26.9275 16.835 26.375 16.75 C23.12659309 15.72418729 20.71248141 14.03436106 18 12 C18 11.34 18 10.68 18 10 C17.34 10.0825 16.68 10.165 16 10.25 C11.78756306 9.89896359 8.65289323 8.03039227 5 6 C5 5.01 5 4.02 5 3 C4.360625 2.87625 3.72125 2.7525 3.0625 2.625 C2.381875 2.41875 1.70125 2.2125 1 2 C0.67 1.34 0.34 0.68 0 0 Z " fill="#B0B391" transform="translate(122,78)"/>
<path d="M0 0 C0.66 0 1.32 0 2 0 C0.34808735 15.43428837 -2.38634014 30.70635604 -5 46 C-5.33 46 -5.66 46 -6 46 C-6.55617978 25.11235955 -6.55617978 25.11235955 -3 18 C-2.81968091 16.27408872 -2.67951575 14.54385555 -2.5625 12.8125 C-2.19210431 8.27216569 -1.437612 4.312836 0 0 Z " fill="#97A4B8" transform="translate(213,176)"/>
<path d="M0 0 C0 3.36049511 -0.65849563 4.51586559 -2.3125 7.375 C-2.99892578 8.57576172 -2.99892578 8.57576172 -3.69921875 9.80078125 C-4.64761117 11.40421949 -5.62732928 12.98925002 -6.625 14.5625 C-7.83224901 16.70262325 -8.6246255 18.63363111 -9.4375 20.9375 C-10.81942828 24.77053266 -12.50104206 27.77553815 -15 31 C-15.66 31 -16.32 31 -17 31 C-16.01 27.7 -15.02 24.4 -14 21 C-13.34 21 -12.68 21 -12 21 C-12.061875 20.236875 -12.12375 19.47375 -12.1875 18.6875 C-11.95938346 15.41782957 -11.32490452 15.15268937 -9 13 C-8.484375 11.96875 -7.96875 10.9375 -7.4375 9.875 C-6 7 -6 7 -4 6 C-2.96986723 4.35178756 -1.96885372 2.68496298 -1 1 C-0.67 0.67 -0.34 0.34 0 0 Z " fill="#7F2A39" transform="translate(237,205)"/>
<path d="M0 0 C0.66 0 1.32 0 2 0 C0.78495805 12.09324105 -0.8781171 24.03258044 -3 36 C-3.33 36 -3.66 36 -4 36 C-4.08987811 31.32633803 -3.9271471 26.78150506 -3.5 22.125 C-3.01288255 16.73240399 -2.89225577 11.41115475 -3 6 C-2.34 6 -1.68 6 -1 6 C-0.67 4.02 -0.34 2.04 0 0 Z " fill="#9AA5C1" transform="translate(205,224)"/>
<path d="M0 0 C1.485 0.99 1.485 0.99 3 2 C3 2.99 3 3.98 3 5 C3.66 5 4.32 5 5 5 C5 5.99 5 6.98 5 8 C5.66 8 6.32 8 7 8 C7.33 8.99 7.66 9.98 8 11 C8.66 11.33 9.32 11.66 10 12 C10.69658363 13.65438613 11.36096883 15.32254318 12 17 C12.66 17.99 13.32 18.98 14 20 C14 20.99 14 21.98 14 23 C14.66 23 15.32 23 16 23 C16.33 25.31 16.66 27.62 17 30 C13.88748116 26.31211576 11.40051484 22.45521136 9.0625 18.25 C8.71767578 17.63672852 8.37285156 17.02345703 8.01757812 16.39160156 C7.32904239 15.16575056 6.64231066 13.93888427 5.95751953 12.7109375 C5.10485756 11.18736405 4.23889118 9.67125367 3.37109375 8.15625 C2.91863281 7.3621875 2.46617188 6.568125 2 5.75 C1.4121875 4.72132812 1.4121875 4.72132812 0.8125 3.671875 C0 2 0 2 0 0 Z " fill="#8ABBD0" transform="translate(103,100)"/>
<path d="M0 0 C0.99 0 1.98 0 3 0 C1.13908395 5.06169166 -1.57088764 9.45672862 -4.34375 14.0625 C-6.04306758 16.90013789 -6.04306758 16.90013789 -7.03125 19.75 C-8 22 -8 22 -11 24 C-10.84402344 23.37351563 -10.68804687 22.74703125 -10.52734375 22.1015625 C-10.33269531 21.28429687 -10.13804687 20.46703125 -9.9375 19.625 C-9.74027344 18.81289062 -9.54304688 18.00078125 -9.33984375 17.1640625 C-8.77890681 14.95838716 -8.77890681 14.95838716 -10 13 C-9.34 13 -8.68 13 -8 13 C-8 12.34 -8 11.68 -8 11 C-7.01 10.67 -6.02 10.34 -5 10 C-3.37492804 7.1668838 -3.37492804 7.1668838 -2 4 C-1.33333333 2.66666667 -0.66666667 1.33333333 0 0 Z " fill="#9E2123" transform="translate(269,144)"/>
<path d="M0 0 C0.66 0.33 1.32 0.66 2 1 C1.3125 3.4375 1.3125 3.4375 0 6 C-1.66666667 6.33333333 -3.33333333 6.66666667 -5 7 C-8.66973219 9.53700301 -11.56985345 11.70956035 -13 16 C-13.99 16 -14.98 16 -16 16 C-16.2475 16.639375 -16.495 17.27875 -16.75 17.9375 C-18 20 -18 20 -20.125 20.75 C-21.053125 20.87375 -21.053125 20.87375 -22 21 C-22 20.01 -22 19.02 -22 18 C-19.7265625 15.80078125 -19.7265625 15.80078125 -16.625 13.3125 C-16.08713867 12.87695801 -15.54927734 12.44141602 -14.99511719 11.99267578 C-13.33685442 10.65308447 -11.66907591 9.3260813 -10 8 C-8.50339844 6.79537109 -8.50339844 6.79537109 -6.9765625 5.56640625 C-4.65754198 3.70255165 -2.33226418 1.84723578 0 0 Z " fill="#B12007" transform="translate(271,95)"/>
<path d="M0 0 C0.33 0.99 0.66 1.98 1 3 C-0.2065625 3.6496875 -0.2065625 3.6496875 -1.4375 4.3125 C-4.27846354 5.80474002 -4.27846354 5.80474002 -5 9 C-5.70125 9.2475 -6.4025 9.495 -7.125 9.75 C-10.73248375 11.31847119 -12.71732331 13.57473419 -15.3515625 16.44140625 C-17 18 -17 18 -20 19 C-20 19.99 -20 20.98 -20 22 C-20.66 22 -21.32 22 -22 22 C-21.78869846 18.23065321 -21.04913715 17.04957008 -18.33984375 14.31640625 C-17.21646012 13.38533604 -16.08171237 12.46785108 -14.9375 11.5625 C-14.05928589 10.84453247 -14.05928589 10.84453247 -13.16333008 10.11206055 C-8.86559723 6.62048554 -4.4820657 3.25169472 0 0 Z " fill="#B52108" transform="translate(297,74)"/>
<path d="M0 0 C0.66 0.33 1.32 0.66 2 1 C1.53158691 1.80836304 1.53158691 1.80836304 1.05371094 2.63305664 C-0.38107346 5.10941379 -1.81553878 7.58595563 -3.25 10.0625 C-3.98669922 11.33383789 -3.98669922 11.33383789 -4.73828125 12.63085938 C-7.50731871 17.41206406 -10.26436096 22.19960483 -13 27 C-13.33 27 -13.66 27 -14 27 C-14 25.02 -14 23.04 -14 21 C-13.01 21 -12.02 21 -11 21 C-11 19.68 -11 18.36 -11 17 C-10.34 17 -9.68 17 -9 17 C-8.67 15.02 -8.34 13.04 -8 11 C-7.34 11 -6.68 11 -6 11 C-6 9.35 -6 7.7 -6 6 C-4.68 5.67 -3.36 5.34 -2 5 C-1.855625 4.360625 -1.71125 3.72125 -1.5625 3.0625 C-1 1 -1 1 0 0 Z " fill="#AE272B" transform="translate(289,112)"/>
<path d="M0 0 C1.16298388 3.87319289 0.66171214 5.49165064 -1.1875 9.125 C-1.61417969 9.99382812 -2.04085938 10.86265625 -2.48046875 11.7578125 C-4.15475879 14.22835873 -5.37433092 14.75073429 -8 16 C-8.165 16.99 -8.33 17.98 -8.5 19 C-8.665 19.99 -8.83 20.98 -9 22 C-11.0625 23.375 -11.0625 23.375 -13 24 C-11.71075644 20.59797567 -10.2347924 17.49435446 -8.3984375 14.35546875 C-7.90859375 13.51435547 -7.41875 12.67324219 -6.9140625 11.80664062 C-6.40617187 10.94232422 -5.89828125 10.07800781 -5.375 9.1875 C-4.859375 8.30384766 -4.34375 7.42019531 -3.8125 6.50976562 C-2.54468886 4.33805211 -1.27377652 2.1682182 0 0 Z " fill="#D6E9EE" transform="translate(311,186)"/>
<path d="M0 0 C0.33 0 0.66 0 1 0 C1.33 4.62 1.66 9.24 2 14 C2.66 14 3.32 14 4 14 C4 16.64 4 19.28 4 22 C3.01 21.67 2.02 21.34 1 21 C0.34 21.66 -0.32 22.32 -1 23 C-1.02714434 20.2915983 -1.04690846 17.58347279 -1.0625 14.875 C-1.07087891 14.11445313 -1.07925781 13.35390625 -1.08789062 12.5703125 C-1.10646509 8.2610356 -0.86117265 4.24483526 0 0 Z " fill="#AC2028" transform="translate(218,154)"/>
<path d="M0 0 C0.33 0 0.66 0 1 0 C1.1953125 6.0546875 1.1953125 6.0546875 1 8 C-0.95216435 9.95216435 -2.53199953 10.84826645 -5 12 C-5 12.66 -5 13.32 -5 14 C-5.66 14 -6.32 14 -7 14 C-7.33 15.65 -7.66 17.3 -8 19 C-8.99 19.33 -9.98 19.66 -11 20 C-9.35800988 15.37909884 -6.9659032 11.36156215 -4.4375 7.1875 C-4.02564453 6.49462891 -3.61378906 5.80175781 -3.18945312 5.08789062 C-2.15713173 3.37298683 -1.08229765 1.68380945 0 0 Z " fill="#F8DFD9" transform="translate(307,84)"/>
<path d="M0 0 C0.66 0 1.32 0 2 0 C1.75203451 7.68693014 -0.44002071 12.79480091 -5 19 C-5.33 19 -5.66 19 -6 19 C-6 17.35 -6 15.7 -6 14 C-5.34 14 -4.68 14 -4 14 C-3.31292445 11.50935112 -3 9.62113708 -3 7 C-4.94009522 5.29467677 -4.94009522 5.29467677 -7 4 C-5.824375 3.566875 -5.824375 3.566875 -4.625 3.125 C-1.90328368 2.15087746 -1.90328368 2.15087746 0 0 Z " fill="#B61A13" transform="translate(315,61)"/>
<path d="M0 0 C0.33 1.32 0.66 2.64 1 4 C0.01 4.66 -0.98 5.32 -2 6 C-3.1479427 7.77570706 -3.1479427 7.77570706 -4.0625 9.8125 C-4.4028125 10.52664062 -4.743125 11.24078125 -5.09375 11.9765625 C-5.78941545 13.52981553 -6.4367725 15.1047775 -7.0625 16.6875 C-8.1350578 19.33314257 -9.38547701 21.64548731 -11 24 C-11.66 24 -12.32 24 -13 24 C-12.60304363 22.37007308 -12.18167507 20.74607765 -11.75 19.125 C-11.51796875 18.22007812 -11.2859375 17.31515625 -11.046875 16.3828125 C-9.78782716 13.51706928 -8.7945464 13.18953197 -6 12 C-5.855625 11.278125 -5.71125 10.55625 -5.5625 9.8125 C-4.76149184 5.80745922 -2.47904411 3.17427419 0 0 Z " fill="#5F3243" transform="translate(219,236)"/>
<path d="M0 0 C2.9657338 0.42367626 4.89147999 0.93043589 7.4375 2.5625 C10.50307723 4.28221405 12.53954332 4.24142721 16 4 C16 5.32 16 6.64 16 8 C17.32 7.67 18.64 7.34 20 7 C20.33 7.66 20.66 8.32 21 9 C20.01 10.485 20.01 10.485 19 12 C18.5153125 11.67386719 18.030625 11.34773437 17.53125 11.01171875 C13.99752269 8.70800037 10.70006297 6.77750248 6.6875 5.4375 C3.0792535 4.03089543 1.82943564 3.3158521 0 0 Z " fill="#DFAC52" transform="translate(202,124)"/>
<path d="M0 0 C0.66 0 1.32 0 2 0 C2.84114171 1.43294498 3.67265687 2.87154405 4.5 4.3125 C5.19609375 5.51326172 5.19609375 5.51326172 5.90625 6.73828125 C7 9 7 9 7 12 C5.68 11.34 4.36 10.68 3 10 C3 9.34 3 8.68 3 8 C1.35 8.33 -0.3 8.66 -2 9 C-3 6 -3 6 -1.5625 2.8125 C-1.046875 1.884375 -0.53125 0.95625 0 0 Z " fill="#EDF9FA" transform="translate(73,52)"/>
<path d="M0 0 C0.33 0 0.66 0 1 0 C0.67 2.31 0.34 4.62 0 7 C-0.66 7 -1.32 7 -2 7 C-2.15855469 7.61488281 -2.31710938 8.22976563 -2.48046875 8.86328125 C-4.40994854 15.54716981 -4.40994854 15.54716981 -7.6875 18.0625 C-8.8321875 18.5265625 -8.8321875 18.5265625 -10 19 C-8.62309544 14.25652774 -6.56160559 10.27474838 -3.9375 6.125 C-3.57333984 5.53203125 -3.20917969 4.9390625 -2.83398438 4.328125 C-1.9218371 2.86464287 -0.96486632 1.4292745 0 0 Z " fill="#D8EBEF" transform="translate(218,344)"/>
<path d="M0 0 C1.98 0.66 3.96 1.32 6 2 C6 2.66 6 3.32 6 4 C6.825 4.226875 7.65 4.45375 8.5 4.6875 C12.73136618 6.27426232 16.25171013 8.50748237 20 11 C17.45297384 12.27351308 16.5717055 11.80191925 13.875 11.0625 C13.15054688 10.86785156 12.42609375 10.67320313 11.6796875 10.47265625 C11.12539062 10.31667969 10.57109375 10.16070312 10 10 C10 9.01 10 8.02 10 7 C9.236875 6.896875 8.47375 6.79375 7.6875 6.6875 C4.77908957 5.94348803 3.92670112 5.20194413 2 3 C1.34 2.67 0.68 2.34 0 2 C0 1.34 0 0.68 0 0 Z " fill="#90B6B5" transform="translate(166,104)"/>
<path d="M0 0 C1.32 0.66 2.64 1.32 4 2 C4.33 1.34 4.66 0.68 5 0 C4.42176904 4.06225548 3.10882263 6.84762346 0.9375 10.3125 C0.38964844 11.19550781 -0.15820312 12.07851563 -0.72265625 12.98828125 C-1.14417969 13.65214844 -1.56570312 14.31601562 -2 15 C-3.07174763 11.34811918 -2.76411467 8.73567172 -2 5 C-1.34 5 -0.68 5 0 5 C-0.2784375 4.0409375 -0.2784375 4.0409375 -0.5625 3.0625 C-0.706875 2.381875 -0.85125 1.70125 -1 1 C-0.67 0.67 -0.34 0.34 0 0 Z " fill="#114861" transform="translate(212,344)"/>
<path d="M0 0 C0.99 0 1.98 0 3 0 C2 3 2 3 0 4 C-1.62700009 7.5590627 -2.78941273 11.28176767 -4 15 C-4.66 15 -5.32 15 -6 15 C-6.33 15.99 -6.66 16.98 -7 18 C-7.66 17.67 -8.32 17.34 -9 17 C-7.51401073 13.01518299 -5.66163296 9.38468256 -3.5625 5.6875 C-2.66724609 4.08455078 -2.66724609 4.08455078 -1.75390625 2.44921875 C-1.17511719 1.64097656 -0.59632813 0.83273437 0 0 Z " fill="#DEEEF2" transform="translate(234,317)"/>
<path d="M0 0 C0.33 0 0.66 0 1 0 C1 1.65 1 3.3 1 5 C0.01 5.495 0.01 5.495 -1 6 C-1.65772428 9.02934491 -1.65772428 9.02934491 -2 12 C-2.99 12.33 -3.98 12.66 -5 13 C-5.33 13.99 -5.66 14.98 -6 16 C-6.66 16 -7.32 16 -8 16 C-8.12375 16.639375 -8.2475 17.27875 -8.375 17.9375 C-8.58125 18.618125 -8.7875 19.29875 -9 20 C-9.66 20.33 -10.32 20.66 -11 21 C-9.78065514 16.96678237 -8.44045073 13.45730521 -6 10 C-5.34 10 -4.68 10 -4 10 C-3.8453125 8.9171875 -3.8453125 8.9171875 -3.6875 7.8125 C-2.93659472 4.74061475 -1.78158272 2.59814146 0 0 Z " fill="#D8E7ED" transform="translate(246,296)"/>
<path d="M0 0 C3.53814347 3.06639101 4.56922992 5.61230509 6 10 C6.99 10.66 7.98 11.32 9 12 C9.70052461 14.663063 9.77744818 17.24035737 10 20 C7.37049126 16.61325931 5.03343437 13.06245206 2.75 9.4375 C2.37359375 8.86064453 1.9971875 8.28378906 1.609375 7.68945312 C0.65861803 6.1741842 -0.17934619 4.58949868 -1 3 C-0.67 2.01 -0.34 1.02 0 0 Z " fill="#194E64" transform="translate(99,200)"/>
<path d="M0 0 C1.08850398 2.73406587 1.09109244 3.77637834 -0.0390625 6.55078125 C-0.56242188 7.46214844 -1.08578125 8.37351563 -1.625 9.3125 C-2.17671875 10.27414063 -2.7284375 11.23578125 -3.296875 12.2265625 C-5.38166559 15.62151965 -7.59880554 18.8219485 -10 22 C-10 14.11179824 -4.04899857 6.46490104 0 0 Z " fill="#4F3649" transform="translate(253,176)"/>
<path d="M0 0 C0.99 0.33 1.98 0.66 3 1 C2 3 2 3 -0.3125 3.8125 C-3.61312356 5.27091506 -4.8141577 7.17955832 -7 10 C-9.0625 11.125 -9.0625 11.125 -11 12 C-11.474375 12.495 -11.94875 12.99 -12.4375 13.5 C-14.4156595 15.39903312 -16.43558782 16.09899031 -19 17 C-16.31710322 13.43726178 -13.58433914 10.667061 -10.0625 7.9375 C-9.22847656 7.28652344 -8.39445313 6.63554688 -7.53515625 5.96484375 C-6.69855469 5.31644531 -5.86195313 4.66804688 -5 4 C-3.69869141 2.85724609 -3.69869141 2.85724609 -2.37109375 1.69140625 C-1.58863281 1.13324219 -0.80617187 0.57507813 0 0 Z " fill="#B02407" transform="translate(244,117)"/>
<path d="M0 0 C0.99 0.33 1.98 0.66 3 1 C0.00670515 3.67428157 -2.99522497 6.33862783 -6 9 C-7.03253906 9.92425781 -7.03253906 9.92425781 -8.0859375 10.8671875 C-12.77242823 15 -12.77242823 15 -15 15 C-15 14.34 -15 13.68 -15 13 C-14.34 13 -13.68 13 -13 13 C-13 12.01 -13 11.02 -13 10 C-12.01 10 -11.02 10 -10 10 C-10 9.34 -10 8.68 -10 8 C-9.34 8 -8.68 8 -8 8 C-7.67 7.01 -7.34 6.02 -7 5 C-2.66666667 2 -2.66666667 2 0 2 C0 1.34 0 0.68 0 0 Z " fill="#F79141" transform="translate(237,120)"/>
<path d="M0 0 C0.66 0 1.32 0 2 0 C2 0.66 2 1.32 2 2 C3.36125 2.37125 3.36125 2.37125 4.75 2.75 C8.10351489 4.03981342 9.67708236 5.31971042 12 8 C9.03 7.505 9.03 7.505 6 7 C6.33 8.65 6.66 10.3 7 12 C3.66488612 9.0098979 1.78478881 6.10501426 0 2 C0 1.34 0 0.68 0 0 Z " fill="#9DBAB6" transform="translate(74,50)"/>
<path d="M0 0 C1.3289334 4.04104238 0.5119432 6.3236065 -1.03125 10.16015625 C-2.26349101 12.50042042 -3.6959523 13.72880127 -6 15 C-6.66 14.67 -7.32 14.34 -8 14 C-7.40361667 12.72549553 -6.79752584 11.45553123 -6.1875 10.1875 C-5.85105469 9.47980469 -5.51460937 8.77210938 -5.16796875 8.04296875 C-3.98864217 5.98013329 -2.66770042 4.66770042 -1 3 C-0.67 2.01 -0.34 1.02 0 0 Z " fill="#164055" transform="translate(245,193)"/>
<path d="M0 0 C0.66 0 1.32 0 2 0 C0.62859834 3.67694648 -1.03695801 6.95318589 -3.0625 10.3125 C-3.58972656 11.19550781 -4.11695313 12.07851562 -4.66015625 12.98828125 C-5.10230469 13.65214844 -5.54445313 14.31601563 -6 15 C-6.33 15 -6.66 15 -7 15 C-7.625 12.125 -7.625 12.125 -8 9 C-7.34 8.34 -6.68 7.68 -6 7 C-5.01 7 -4.02 7 -3 7 C-2.814375 5.824375 -2.814375 5.824375 -2.625 4.625 C-2 2 -2 2 0 0 Z " fill="#164A5F" transform="translate(313,179)"/>
<path d="M0 0 C0.33 1.32 0.66 2.64 1 4 C-2 4 -2 4 -4 3 C-3.608125 3.7425 -3.21625 4.485 -2.8125 5.25 C-2.544375 6.1575 -2.27625 7.065 -2 8 C-3.375 10.3125 -3.375 10.3125 -5 12 C-7.05645161 6.67741935 -7.05645161 6.67741935 -6.8125 3.75 C-5.30529278 0.50370752 -3.39357918 0 0 0 Z " fill="#B51B0E" transform="translate(310,66)"/>
<path d="M0 0 C7 8.44827586 7 8.44827586 7 12 C5.68 11.67 4.36 11.34 3 11 C3 10.34 3 9.68 3 9 C2.01 8.67 1.02 8.34 0 8 C-0.66 8.66 -1.32 9.32 -2 10 C-1.34 6.7 -0.68 3.4 0 0 Z " fill="#E3F0F4" transform="translate(163,313)"/>
<path d="M0 0 C2.74733115 3.16999748 5.1069518 6.54078295 7.375 10.0625 C7.91898438 10.89910156 8.46296875 11.73570312 9.0234375 12.59765625 C10 15 10 15 9.1640625 17.30859375 C8.77992188 17.86675781 8.39578125 18.42492187 8 19 C5.59185923 15.48812804 4.63370592 13.27343092 5 9 C4.01 8.67 3.02 8.34 2 8 C2.33 7.34 2.66 6.68 3 6 C2.34 6 1.68 6 1 6 C0.67 4.02 0.34 2.04 0 0 Z " fill="#D4E5EA" transform="translate(153,296)"/>
<path d="M0 0 C1.1875 1.5 1.1875 1.5 2 4 C1.27101296 6.78824238 0.1843275 9.37665092 -1 12 C-2.65 12 -4.3 12 -6 12 C-4.43358249 7.69235185 -2.31663844 3.93828536 0 0 Z " fill="#F2F8FA" transform="translate(254,283)"/>
<path d="M0 0 C0.66 0 1.32 0 2 0 C1.6893306 2.70855454 1.37652255 5.41683388 1.0625 8.125 C0.97548828 8.88554687 0.88847656 9.64609375 0.79882812 10.4296875 C0.3084513 14.64329577 -0.25902978 18.821195 -1 23 C-1.33 23 -1.66 23 -2 23 C-2.20483028 15.00023956 -2.13480153 7.73865554 0 0 Z " fill="#9BA8C3" transform="translate(209,199)"/>
<path d="M0 0 C0.99 1.485 0.99 1.485 2 3 C2.99 3 3.98 3 5 3 C5.05447047 4.41623216 5.09300508 5.83308191 5.125 7.25 C5.14820313 8.03890625 5.17140625 8.8278125 5.1953125 9.640625 C4.9828378 12.20731941 4.28654105 13.7916067 3 16 C2.87625 14.906875 2.7525 13.81375 2.625 12.6875 C2.24535199 8.92618198 2.24535199 8.92618198 0 6 C-0.125 2.8125 -0.125 2.8125 0 0 Z " fill="#89B6D1" transform="translate(196,253)"/>
<path d="M0 0 C0 2.31 0 4.62 0 7 C-0.66 7 -1.32 7 -2 7 C-2.33 8.32 -2.66 9.64 -3 11 C-3.99 11 -4.98 11 -6 11 C-5.50928382 4.62068966 -5.50928382 4.62068966 -3 1.5625 C-1 0 -1 0 0 0 Z " fill="#81B6D3" transform="translate(207,217)"/>
<path d="M0 0 C3 1 3 1 4.6875 3.9375 C6 7 6 7 6 9 C6.66 9 7.32 9 8 9 C9.33333333 11.66666667 10.66666667 14.33333333 12 17 C11.34 17.66 10.68 18.32 10 19 C6.34933813 12.82195683 3.17023562 6.43557831 0 0 Z " fill="#8ABCD0" transform="translate(91,80)"/>
<path d="M0 0 C1 3 1 3 -0.14453125 5.4453125 C-0.69496094 6.32960937 -1.24539062 7.21390625 -1.8125 8.125 C-2.35519531 9.01445312 -2.89789063 9.90390625 -3.45703125 10.8203125 C-5 13 -5 13 -7 14 C-7 10.7 -7 7.4 -7 4 C-4.525 4.495 -4.525 4.495 -2 5 C-1.34 3.35 -0.68 1.7 0 0 Z " fill="#99222B" transform="translate(243,192)"/>
<path d="M0 0 C0.33 0 0.66 0 1 0 C1.12036664 5.77759884 0.8320582 11.27959989 0 17 C-0.66 17 -1.32 17 -2 17 C-2.33 17.66 -2.66 18.32 -3 19 C-2.69277348 16.02020106 -2.37948528 13.04126241 -2.0625 10.0625 C-1.97548828 9.21236328 -1.88847656 8.36222656 -1.79882812 7.48632812 C-1.71181641 6.67744141 -1.62480469 5.86855469 -1.53515625 5.03515625 C-1.456604 4.2862915 -1.37805176 3.53742676 -1.29711914 2.76586914 C-1 1 -1 1 0 0 Z " fill="#98292F" transform="translate(222,135)"/>
<path d="M0 0 C0.33 0 0.66 0 1 0 C1 1.65 1 3.3 1 5 C0.34 5 -0.32 5 -1 5 C-1.268125 5.70125 -1.53625 6.4025 -1.8125 7.125 C-3.07815076 10.18920711 -4.36105848 13.11546292 -6 16 C-6.99 16.33 -7.98 16.66 -9 17 C-7.51463956 12.97683781 -5.60123107 9.38707358 -3.4375 5.6875 C-2.81746094 4.61886719 -2.19742187 3.55023438 -1.55859375 2.44921875 C-1.04425781 1.64097656 -0.52992188 0.83273438 0 0 Z " fill="#F9DAD7" transform="translate(319,63)"/>
<path d="M0 0 C0.66 0 1.32 0 2 0 C0.23570801 4.97209562 -2.3939166 9.43438061 -5 14 C-5.33 14 -5.66 14 -6 14 C-6 11.36 -6 8.72 -6 6 C-5.01 5.67 -4.02 5.34 -3 5 C-2.67 4.34 -2.34 3.68 -2 3 C-1.34 3 -0.68 3 0 3 C0 2.01 0 1.02 0 0 Z " fill="#1A4F65" transform="translate(224,330)"/>
<path d="M0 0 C0.33 0.99 0.66 1.98 1 3 C-0.58589964 6.17179928 -2.38962121 8.61661067 -5 11 C-5.66 11.66 -6.32 12.32 -7 13 C-7.35475877 9.18634321 -7.2619932 7.41557542 -5.1875 4.125 C-3 2 -3 2 0 2 C0 1.34 0 0.68 0 0 Z " fill="#9E2122" transform="translate(257,168)"/>
<path d="M0 0 C12.75 3.91666667 12.75 3.91666667 15.3125 8.1875 C15.539375 8.785625 15.76625 9.38375 16 10 C10.66666667 7.33333333 5.33333333 4.66666667 0 2 C0 1.34 0 0.68 0 0 Z " fill="#D0B166" transform="translate(172,106)"/>
<path d="M0 0 C0.66 0 1.32 0 2 0 C0.51481201 4.04301175 -1.42877998 7.61146256 -3.625 11.3125 C-4.25664062 12.38113281 -4.88828125 13.44976562 -5.5390625 14.55078125 C-6.26222656 15.76314453 -6.26222656 15.76314453 -7 17 C-7.33 16.34 -7.66 15.68 -8 15 C-6.94768851 12.5749805 -5.84614846 10.27492731 -4.625 7.9375 C-4.295 7.28716797 -3.965 6.63683594 -3.625 5.96679688 C-1.16836021 1.16836021 -1.16836021 1.16836021 0 0 Z " fill="#AC2F33" transform="translate(307,80)"/>
<path d="M0 0 C0.66 0.33 1.32 0.66 2 1 C0.66511872 4.59391114 -0.96022723 7.75490696 -3 11 C-3.99 10.67 -4.98 10.34 -6 10 C-5.67 8.35 -5.34 6.7 -5 5 C-3.68 5 -2.36 5 -1 5 C-0.67 3.35 -0.34 1.7 0 0 Z " fill="#19505F" transform="translate(204,363)"/>
<path d="M0 0 C0.33 0 0.66 0 1 0 C1.02706445 2.89589652 1.04687029 5.79153795 1.0625 8.6875 C1.07087891 9.50412109 1.07925781 10.32074219 1.08789062 11.16210938 C1.10442051 15.24499084 1.03035098 19.01651707 0 23 C-0.33 23 -0.66 23 -1 23 C-1.33 18.71 -1.66 14.42 -2 10 C-1.34 10 -0.68 10 0 10 C0 6.7 0 3.4 0 0 Z " fill="#93ABC6" transform="translate(216,150)"/>
<path d="M0 0 C0 6.35310274 -3.17947093 12.07028507 -7 17 C-7.66 17 -8.32 17 -9 17 C-7.375 11.25 -7.375 11.25 -4 9 C-3.29508733 6.67793475 -2.62787571 4.34406932 -2 2 C-1.34 1.34 -0.68 0.68 0 0 Z " fill="#443748" transform="translate(229,219)"/>
<path d="M0 0 C0.66 1.32 1.32 2.64 2 4 C1.04956626 5.33897583 0.08940853 6.67105427 -0.875 8 C-1.40867187 8.7425 -1.94234375 9.485 -2.4921875 10.25 C-2.98976563 10.8275 -3.48734375 11.405 -4 12 C-4.66 12 -5.32 12 -6 12 C-4.68139111 7.38486888 -2.78644563 3.90102388 0 0 Z " fill="#F4D3CE" transform="translate(286,120)"/>
<path d="M0 0 C0.99 0 1.98 0 3 0 C4.1875 1.5 4.1875 1.5 5 4 C4.00656959 8.48849922 2.42671159 11.9014805 -1 15 C-0.11223998 11.30099992 0.94581864 7.65449539 2 4 C1.34 4 0.68 4 0 4 C0 2.68 0 1.36 0 0 Z " fill="#AE1925" transform="translate(218,224)"/>
<path d="M0 0 C0.66 0 1.32 0 2 0 C3.54296875 2.1171875 3.54296875 2.1171875 5.1875 4.875 C5.73792969 5.77992188 6.28835937 6.68484375 6.85546875 7.6171875 C7.23316406 8.40351563 7.61085938 9.18984375 8 10 C7.67 10.66 7.34 11.32 7 12 C4 11 4 11 2.83203125 9.2578125 C2.49558594 8.55398437 2.15914063 7.85015625 1.8125 7.125 C1.46832031 6.42632812 1.12414062 5.72765625 0.76953125 5.0078125 C0 3 0 3 0 0 Z " fill="#D7EBEF" transform="translate(73,162)"/>
<path d="M0 0 C0.99 0 1.98 0 3 0 C1.23570801 4.97209562 -1.3939166 9.43438061 -4 14 C-5.01719864 10.83234786 -5.09916277 10.22665775 -3.6875 7 C-3.130625 6.01 -2.57375 5.02 -2 4 C-1.608125 3.21625 -1.21625 2.4325 -0.8125 1.625 C-0.544375 1.08875 -0.27625 0.5525 0 0 Z " fill="#AB262C" transform="translate(269,144)"/>
<path d="M0 0 C0.33 1.32 0.66 2.64 1 4 C0.34 4 -0.32 4 -1 4 C-1.33 6.64 -1.66 9.28 -2 12 C-3.65 12.66 -5.3 13.32 -7 14 C-5.23570801 9.02790438 -2.6060834 4.56561939 0 0 Z " fill="#F7D9D6" transform="translate(279,132)"/>
<path d="M0 0 C6.15234375 0.5859375 6.15234375 0.5859375 8 1 C8.33 1.66 8.66 2.32 9 3 C8.01 3 7.02 3 6 3 C6 3.66 6 4.32 6 5 C4.35 5 2.7 5 1 5 C0.67 3.35 0.34 1.7 0 0 Z " fill="#7DB9C5" transform="translate(80,57)"/>
<path d="M0 0 C-2.97 2.64 -5.94 5.28 -9 8 C-9.66 7.01 -10.32 6.02 -11 5 C-10.34 4.54625 -9.68 4.0925 -9 3.625 C-8.34 3.08875 -7.68 2.5525 -7 2 C-7 1.34 -7 0.68 -7 0 C-4 -1 -4 -1 0 0 Z " fill="#F69542" transform="translate(320,56)"/>
<path d="M0 0 C0.66 0 1.32 0 2 0 C0.52202738 3.67056937 -1.47615477 5.41085783 -4.625 7.75 C-5.44226563 8.36359375 -6.25953125 8.9771875 -7.1015625 9.609375 C-7.72804687 10.06828125 -8.35453125 10.5271875 -9 11 C-9.66 10.67 -10.32 10.34 -11 10 C-8.17589976 7.07130346 -5.27847819 4.41572077 -2 2 C-1.34 2 -0.68 2 0 2 C0 1.34 0 0.68 0 0 Z " fill="#FA9A46" transform="translate(260,101)"/>
<path d="M0 0 C1.11340257 3.34020772 1.24574643 5.67800951 0 9 C-3.0625 11.3125 -3.0625 11.3125 -6 13 C-5.42655063 10.13275314 -5.1385485 9.1385485 -3 7 C-1.96157435 4.68351201 -0.9578025 2.35096976 0 0 Z " fill="#103F62" transform="translate(214,247)"/>
<path d="M0 0 C0.66 0.33 1.32 0.66 2 1 C-0.475 5.455 -0.475 5.455 -3 10 C-3.33 10 -3.66 10 -4 10 C-4 8.35 -4 6.7 -4 5 C-4.66 5 -5.32 5 -6 5 C-5.67 4.01 -5.34 3.02 -5 2 C-3.35 2 -1.7 2 0 2 C0 1.34 0 0.68 0 0 Z " fill="#134A65" transform="translate(278,239)"/>
<path d="M0 0 C0.99 0.33 1.98 0.66 3 1 C0.69 4.96 -1.62 8.92 -4 13 C-5 9 -5 9 -4.00390625 6.640625 C-3.52824219 5.85171875 -3.05257812 5.0628125 -2.5625 4.25 C-2.08941406 3.45078125 -1.61632812 2.6515625 -1.12890625 1.828125 C-0.75636719 1.22484375 -0.38382813 0.6215625 0 0 Z " fill="#1E4F63" transform="translate(232,316)"/>
<path d="M0 0 C0.82757813 0.42925781 0.82757813 0.42925781 1.671875 0.8671875 C4.15905289 2.07739151 6.67747753 3.1095306 9.25 4.125 C10.14203125 4.47820312 11.0340625 4.83140625 11.953125 5.1953125 C12.62859375 5.46085937 13.3040625 5.72640625 14 6 C14 6.99 14 7.98 14 9 C12.68 8.67 11.36 8.34 10 8 C10 7.34 10 6.68 10 6 C9.443125 5.896875 8.88625 5.79375 8.3125 5.6875 C5.52870742 4.85988599 3.40148127 3.62262248 1 2 C0.67 1.34 0.34 0.68 0 0 Z " fill="#DDAD58" transform="translate(118,74)"/>
<path d="M0 0 C4.14693088 0.60984278 7.41325059 1.81676123 11 4 C12.875 6.6875 12.875 6.6875 14 9 C11.07377109 7.55362598 8.18213061 6.05576668 5.3125 4.5 C4.52488281 4.0771875 3.73726563 3.654375 2.92578125 3.21875 C1 2 1 2 0 0 Z " fill="#C7B176" transform="translate(107,69)"/>
<path d="M0 0 C0.66 0.33 1.32 0.66 2 1 C0.80100302 4.0831351 -0.47700477 7.06279492 -2 10 C-2.99 10 -3.98 10 -5 10 C-5 6 -5 6 -3.0625 3.875 C-2.0415625 2.946875 -2.0415625 2.946875 -1 2 C-0.67 1.34 -0.34 0.68 0 0 Z " fill="#233C56" transform="translate(206,260)"/>
<path d="M0 0 C0.99 0 1.98 0 3 0 C2.43393721 4.69023454 1.81462495 9.34500026 1 14 C0.67 14 0.34 14 0 14 C0 9.38 0 4.76 0 0 Z " fill="#9C9FBA" transform="translate(217,146)"/>
<path d="M0 0 C3.09592835 3.5087188 4.74194623 6.49197399 6 11 C5.01 11 4.02 11 3 11 C3 10.01 3 9.02 3 8 C2.34 8 1.68 8 1 8 C0.67 5.36 0.34 2.72 0 0 Z " fill="#E1F8FC" transform="translate(111,116)"/>
<path d="M0 0 C0.33 0 0.66 0 1 0 C1.33 3.3 1.66 6.6 2 10 C1.01 10.33 0.02 10.66 -1 11 C-1 12.32 -1 13.64 -1 15 C-1.66 14.67 -2.32 14.34 -3 14 C-2.01 9.38 -1.02 4.76 0 0 Z " fill="#7D4C5C" transform="translate(202,255)"/>
<path d="M0 0 C0 0.99 0 1.98 0 3 C-0.66 3 -1.32 3 -2 3 C-2.33 3.99 -2.66 4.98 -3 6 C-6 2.25 -6 2.25 -6 0 C-3 -1 -3 -1 0 0 Z " fill="#114C67" transform="translate(192,350)"/>
<path d="M0 0 C0.66 1.32 1.32 2.64 2 4 C1.01 5.485 1.01 5.485 0 7 C0 7.99 0 8.98 0 10 C-0.99 9.01 -1.98 8.02 -3 7 C-1.125 1.125 -1.125 1.125 0 0 Z " fill="#0F4D6E" transform="translate(167,308)"/>
<path d="M0 0 C0.33 0 0.66 0 1 0 C1.06058594 0.74765625 1.12117187 1.4953125 1.18359375 2.265625 C1.26738281 3.25046875 1.35117188 4.2353125 1.4375 5.25 C1.51871094 6.22453125 1.59992188 7.1990625 1.68359375 8.203125 C1.95074584 10.56461753 2.35371968 12.71901065 3 15 C2.01 15.33 1.02 15.66 0 16 C0 10.72 0 5.44 0 0 Z " fill="#902F37" transform="translate(203,247)"/>
<path d="M0 0 C1.0625 1.8125 1.0625 1.8125 2 4 C1.67 4.99 1.34 5.98 1 7 C0.34 7 -0.32 7 -1 7 C-1 7.66 -1 8.32 -1 9 C-1.99 9 -2.98 9 -4 9 C-2.80100302 5.9168649 -1.52299523 2.93720508 0 0 Z " fill="#DFEFF1" transform="translate(275,247)"/>
<path d="M0 0 C0.66 0 1.32 0 2 0 C1.34 2.31 0.68 4.62 0 7 C-5.75 5.25 -5.75 5.25 -8 3 C-6.576875 3.0928125 -6.576875 3.0928125 -5.125 3.1875 C-3.578125 3.0946875 -3.578125 3.0946875 -2 3 C-1.34 2.01 -0.68 1.02 0 0 Z " fill="#EBAB3F" transform="translate(144,82)"/>
<path d="M0 0 C0.66 0.66 1.32 1.32 2 2 C1.02526874 3.66926454 0.04510211 5.33535642 -0.9375 7 C-1.48277344 7.928125 -2.02804687 8.85625 -2.58984375 9.8125 C-3.05519531 10.534375 -3.52054687 11.25625 -4 12 C-4.33 12 -4.66 12 -5 12 C-5 10.35 -5 8.7 -5 7 C-4.34 7 -3.68 7 -3 7 C-2.87625 6.401875 -2.7525 5.80375 -2.625 5.1875 C-2 3 -2 3 0 0 Z " fill="#AF312B" transform="translate(314,68)"/>
<path d="M0 0 C0.66 0.33 1.32 0.66 2 1 C-0.475 5.455 -0.475 5.455 -3 10 C-3.33 10 -3.66 10 -4 10 C-4 7.69 -4 5.38 -4 3 C-2.68 2.67 -1.36 2.34 0 2 C0 1.34 0 0.68 0 0 Z " fill="#1E5064" transform="translate(304,195)"/>
<path d="M0 0 C1 2 1 2 0.3125 4.875 C-1.03712351 8.08838932 -2.39272995 9.74036595 -5 12 C-4.54965877 10.37276701 -4.08944646 8.74826336 -3.625 7.125 C-3.36976563 6.22007812 -3.11453125 5.31515625 -2.8515625 4.3828125 C-2 2 -2 2 0 0 Z " fill="#313851" transform="translate(257,171)"/>
<path d="M0 0 C-1.2491742 3.45925163 -2.67527795 6.14693203 -5 9 C-5 6.36 -5 3.72 -5 1 C-3 0 -3 0 0 0 Z " fill="#1C4F65" transform="translate(321,169)"/>
<path d="M0 0 C3.3 1.65 6.6 3.3 10 5 C10 5.33 10 5.66 10 6 C8.02 6 6.04 6 4 6 C4 5.34 4 4.68 4 4 C2.68 3.34 1.36 2.68 0 2 C0 1.34 0 0.68 0 0 Z " fill="#8CB5BC" transform="translate(107,70)"/>
<path d="M0 0 C-0.33 1.65 -0.66 3.3 -1 5 C-2.65 4.67 -4.3 4.34 -6 4 C-6.33 3.01 -6.66 2.02 -7 1 C-4.50935112 0.31292445 -2.62113708 0 0 0 Z " fill="#E9A94B" transform="translate(91,53)"/>
<path d="M0 0 C3.0916909 2.52956528 3.90931332 5.22454612 5 9 C4.01 9 3.02 9 2 9 C2 8.34 2 7.68 2 7 C1.34 7 0.68 7 0 7 C0 4.69 0 2.38 0 0 Z " fill="#DAF2F8" transform="translate(130,149)"/>
<path d="M0 0 C0.99 0.33 1.98 0.66 3 1 C2.01 1.99 1.02 2.98 0 4 C0 2.68 0 1.36 0 0 Z M-5 5 C-2.525 5.495 -2.525 5.495 0 6 C0 6.66 0 7.32 0 8 C-1.65 8 -3.3 8 -5 8 C-5 7.01 -5 6.02 -5 5 Z " fill="#7CB8CE" transform="translate(188,118)"/>
<path d="M0 0 C2.34058637 2.12780579 3.70700306 4.11562221 5 7 C3.02 7 1.04 7 -1 7 C-0.67 4.69 -0.34 2.38 0 0 Z " fill="#DDEDEE" transform="translate(99,205)"/>
<path d="M0 0 C3.10551666 3.10551666 3.81323934 4.89198233 5 9 C4.01 9 3.02 9 2 9 C1.34 6.03 0.68 3.06 0 0 Z " fill="#D0E5EB" transform="translate(81,174)"/>
<path d="M0 0 C0.99 0 1.98 0 3 0 C2 3 2 3 0 4 C-0.65213292 6.02463255 -0.65213292 6.02463255 -1 8 C-1.99 8 -2.98 8 -4 8 C-2.87548273 5.0280615 -1.77706209 2.66559313 0 0 Z " fill="#D3E7EE" transform="translate(234,317)"/>
<path d="M0 0 C0.33 0 0.66 0 1 0 C1.1875 2.375 1.1875 2.375 1 5 C0.01 5.66 -0.98 6.32 -2 7 C-2.33 7.99 -2.66 8.98 -3 10 C-3.66 10 -4.32 10 -5 10 C-3.66654496 6.40992874 -2.1056769 3.20429093 0 0 Z " fill="#CFE6EC" transform="translate(270,256)"/>
<path d="M0 0 C0.6875 1.6875 0.6875 1.6875 1 4 C-0.25 6.6875 -0.25 6.6875 -2 9 C-2.99 9.33 -3.98 9.66 -5 10 C-3.66511872 6.40608886 -2.03977277 3.24509304 0 0 Z " fill="#663143" transform="translate(253,176)"/>
<path d="M0 0 C2.475 0.99 2.475 0.99 5 2 C5 3.98 5 5.96 5 8 C2.74754119 5.31158141 1.11786042 3.35358125 0 0 Z " fill="#1B4E61" transform="translate(79,169)"/>
<path d="M0 0 C0.6875 1.6875 0.6875 1.6875 1 4 C-0.25 6.6875 -0.25 6.6875 -2 9 C-2.99 9.33 -3.98 9.66 -5 10 C-3.66511872 6.40608886 -2.03977277 3.24509304 0 0 Z " fill="#CAE3E9" transform="translate(323,166)"/>
<path d="M0 0 C2 0 2 0 4.1875 1.6875 C6 4 6 4 5.75 6.75 C5.5025 7.4925 5.255 8.235 5 9 C2.67527795 6.14693203 1.2491742 3.45925163 0 0 Z " fill="#81B9CE" transform="translate(130,147)"/>
<path d="M0 0 C3.67420866 0.30618405 4.78135513 0.75771784 7.3125 3.5625 C8.1478125 4.7690625 8.1478125 4.7690625 9 6 C4.64464931 4.83857315 2.35380297 3.92300495 0 0 Z " fill="#BEB183" transform="translate(202,124)"/>
<path d="M0 0 C1.2065625 0.0309375 1.2065625 0.0309375 2.4375 0.0625 C-1.1875 4.9375 -1.1875 4.9375 -4.5625 6.0625 C-3.48963568 0.08511307 -3.48963568 0.08511307 0 0 Z " fill="#FB9D44" transform="translate(244.5625,113.9375)"/>
<path d="M0 0 C0.33 0 0.66 0 1 0 C0.67 2.31 0.34 4.62 0 7 C-1.32 7.33 -2.64 7.66 -4 8 C-2.87548273 5.0280615 -1.77706209 2.66559313 0 0 Z " fill="#CEDFE7" transform="translate(218,344)"/>
<path d="M0 0 C0.99 0.33 1.98 0.66 3 1 C3 1.99 3 2.98 3 4 C3.66 4 4.32 4 5 4 C5.33 5.32 5.66 6.64 6 8 C5.01 8.495 5.01 8.495 4 9 C0 2.25 0 2.25 0 0 Z " fill="#204E65" transform="translate(167,318)"/>
<path d="M0 0 C0.99 1.32 1.98 2.64 3 4 C2.01 5.485 2.01 5.485 1 7 C0.01 7 -0.98 7 -2 7 C-2 5.02 -2 3.04 -2 1 C-1.34 0.67 -0.68 0.34 0 0 Z " fill="#0A4D6D" transform="translate(187,248)"/>
<path d="M0 0 C0.66 0.66 1.32 1.32 2 2 C0.6875 4.9375 0.6875 4.9375 -1 8 C-1.99 8.33 -2.98 8.66 -4 9 C-2.80100302 5.9168649 -1.52299523 2.93720508 0 0 Z " fill="#D2E5EC" transform="translate(206,364)"/>
<path d="M0 0 C0.66 0 1.32 0 2 0 C1.67 1.32 1.34 2.64 1 4 C0.34 4 -0.32 4 -1 4 C-1.12375 4.639375 -1.2475 5.27875 -1.375 5.9375 C-1.58125 6.618125 -1.7875 7.29875 -2 8 C-2.99 8.495 -2.99 8.495 -4 9 C-2.94124926 5.59687262 -1.99097846 2.98646769 0 0 Z " fill="#C9E0E7" transform="translate(239,308)"/>
<path d="M0 0 C3.875 1.875 3.875 1.875 5 3 C5.04063832 4.66617115 5.042721 6.33388095 5 8 C2.27573689 5.64722731 1.1858237 3.37503669 0 0 Z " fill="#1D5161" transform="translate(149,288)"/>
<path d="M0 0 C0.8125 1.625 0.8125 1.625 1 4 C-0.46818136 6.24609835 -2.15852858 8.02378677 -4 10 C-4 5.75354935 -2.18249194 3.61475228 0 0 Z " fill="#D4E8ED" transform="translate(254,283)"/>
<path d="M0 0 C1.32 0 2.64 0 4 0 C4.33 1.98 4.66 3.96 5 6 C3.0625 5.25 3.0625 5.25 1 4 C0.25 1.875 0.25 1.875 0 0 Z " fill="#144860" transform="translate(137,267)"/>
<path d="M0 0 C1.125 3.75 1.125 3.75 0 6 C-0.66 6 -1.32 6 -2 6 C-2 6.66 -2 7.32 -2 8 C-2.66 8 -3.32 8 -4 8 C-2.87548273 5.0280615 -1.77706209 2.66559313 0 0 Z " fill="#C9E0E7" transform="translate(280,239)"/>
<path d="M0 0 C0.88492145 2.47778006 1.11637742 3.66056586 0.25 6.1875 C-1 8 -1 8 -4 9 C-2.80100302 5.9168649 -1.52299523 2.93720508 0 0 Z " fill="#CDE3E9" transform="translate(302,201)"/>
<path d="M0 0 C4 4.75 4 4.75 4 7 C3.01 7 2.02 7 1 7 C-0.0625 4.625 -0.0625 4.625 -1 2 C-0.67 1.34 -0.34 0.68 0 0 Z " fill="#D7EBEF" transform="translate(147,286)"/>
<path d="M0 0 C0.66 0.99 1.32 1.98 2 3 C1.03114628 4.68496298 0.03013277 6.35178756 -1 8 C-1.33 8 -1.66 8 -2 8 C-2 6.02 -2 4.04 -2 2 C-1.34 2 -0.68 2 0 2 C0 1.34 0 0.68 0 0 Z " fill="#154862" transform="translate(285,225)"/>
<path d="M0 0 C2 3 2 3 1.625 5.1875 C1.41875 5.785625 1.2125 6.38375 1 7 C-0.32 7 -1.64 7 -3 7 C-2.690625 6.401875 -2.38125 5.80375 -2.0625 5.1875 C-0.89790296 2.91043228 -0.89790296 2.91043228 0 0 Z " fill="#173D60" transform="translate(236,208)"/>
<path d="M0 0 C0.33 0.99 0.66 1.98 1 3 C1.66 3 2.32 3 3 3 C2.67 4.32 2.34 5.64 2 7 C1.34 7 0.68 7 0 7 C-0.38133299 5.0085944 -0.71325582 3.00720923 -1 1 C-0.67 0.67 -0.34 0.34 0 0 Z " fill="#AC1B11" transform="translate(231,205)"/>
<path d="M0 0 C0.99 0 1.98 0 3 0 C3 0.99 3 1.98 3 3 C4.65 3.33 6.3 3.66 8 4 C4.37673261 5.2077558 3.35853631 4.54311128 0 3 C0 2.01 0 1.02 0 0 Z " fill="#85B7C3" transform="translate(124,81)"/>
<path d="M0 0 C0.99 0 1.98 0 3 0 C3.66 2.31 4.32 4.62 5 7 C4.01 6.67 3.02 6.34 2 6 C0.8125 2.9375 0.8125 2.9375 0 0 Z " fill="#89BAD5" transform="translate(81,62)"/>
<path d="M0 0 C0.66 0.99 1.32 1.98 2 3 C1.1875 4.9375 1.1875 4.9375 0 7 C-0.99 7.33 -1.98 7.66 -3 8 C-1.125 2.25 -1.125 2.25 0 0 Z " fill="#F4D1CE" transform="translate(323,55)"/>
</svg>
