<?xml version="1.0" encoding="UTF-8"?>
<svg version="1.1" xmlns="http://www.w3.org/2000/svg" width="500" height="500">
<path d="M0 0 C38.61 0 77.22 0 117 0 C108.9997698 16.00046041 108.9997698 16.00046041 105.25 22.1875 C104.40292569 23.60634114 103.55660336 25.02563144 102.7109375 26.4453125 C102.27491211 27.17524414 101.83888672 27.90517578 101.38964844 28.65722656 C98.85000002 32.93875611 96.36458747 37.2517357 93.875 41.5625 C91.461875 45.7390625 91.461875 45.7390625 89 50 C98.24 50 107.48 50 117 50 C115.40619806 53.98450484 113.77223399 57.28649165 111.61328125 60.953125 C111.27965576 61.5216066 110.94603027 62.0900882 110.60229492 62.67579651 C109.50920164 64.53595264 108.41097272 66.39301633 107.3125 68.25 C106.54367182 69.55546956 105.77503832 70.86105379 105.0065918 72.16674805 C99.54579814 81.43385342 94.02006682 90.66151027 88.46728516 99.8737793 C84.13945671 107.06474791 79.89813918 114.30240159 75.6875 121.5625 C71.60639334 128.58145497 67.50475148 135.58455287 63.25 142.5 C62.84354248 143.1710376 62.43708496 143.8420752 62.01831055 144.53344727 C61.0682201 146.058652 60.04199324 147.53604255 59 149 C58.34 149 57.68 149 57 149 C56.62415771 148.34330322 56.24831543 147.68660645 55.86108398 147.01000977 C48.29425431 133.80380439 40.6418068 120.66269041 32.78027344 107.62915039 C26.05238 96.46060238 19.47426759 85.20582499 12.89863586 73.94726562 C10.84892162 70.44118618 8.78323814 66.94515159 6.703125 63.45703125 C6.22721924 62.65716797 5.75131348 61.85730469 5.26098633 61.03320312 C4.40764644 59.60136774 3.55095954 58.17151922 2.69018555 56.74414062 C0 52.22209809 0 52.22209809 0 50 C8.91 49.67 17.82 49.34 27 49 C24.92990693 45.37149308 22.85943485 41.74320703 20.78808594 38.11541748 C20.05628358 36.83350526 19.32467446 35.5514827 18.59326172 34.26934814 C14.91669326 27.82492249 11.2359294 21.38393055 7.48828125 14.98046875 C6.9775708 14.10688721 6.46686035 13.23330566 5.94067383 12.33325195 C4.99763348 10.72412243 4.05099127 9.11709708 3.1003418 7.51245117 C0 2.2195226 0 2.2195226 0 0 Z " fill="#004562" transform="translate(223,174)"/>
<path d="M0 0 C24 0 24 0 29.8125 5.5 C31.10498047 7.40307617 31.10498047 7.40307617 31.9296875 9.10546875 C34.0935503 13.27201081 36.72281805 16.99010574 39.4375 20.8125 C40.25223591 22.00409906 41.06329548 23.19821821 41.87109375 24.39453125 C46.5511761 31.28319179 51.2819061 38.13731796 56 45 C56.33 30.15 56.66 15.3 57 0 C65.25 0 73.5 0 82 0 C82 32.01 82 64.02 82 97 C73.75 97 65.5 97 57 97 C48.75789037 87.50061942 48.75789037 87.50061942 46.71484375 83.24609375 C44.24257625 78.36654813 41.37143346 74.00037607 38.1875 69.5625 C33.69867908 63.10284764 29.36412189 56.54618283 25 50 C24.67 65.51 24.34 81.02 24 97 C16.08 97 8.16 97 0 97 C0 64.99 0 32.98 0 0 Z " fill="#004562" transform="translate(10,224)"/>
<path d="M0 0 C54.82236842 0 54.82236842 0 65.81640625 10.78125 C73.83188487 20.5846424 75.07056837 31.71195081 74.22314453 43.92919922 C73.17201189 53.68380216 68.15331521 61.65469589 60.7578125 67.890625 C50.39030166 74.4741482 37.74167565 72.37473433 26 72 C26 80.25 26 88.5 26 97 C17.42 97 8.84 97 0 97 C0 64.99 0 32.98 0 0 Z M25 26 C25 33.26 25 40.52 25 48 C28.774375 48.12375 28.774375 48.12375 32.625 48.25 C33.40568848 48.28641602 34.18637695 48.32283203 34.99072266 48.36035156 C40.1107831 48.4409415 42.92695 47.34039771 47 44 C49.34965355 40.79592697 49.54561533 37.89725235 49 34 C46.54607369 30.13320702 45.10094473 28.49430171 40.9375 26.625 C35.56314755 25.77192818 30.44105957 25.877729 25 26 Z " fill="#004562" transform="translate(153,224)"/>
<path d="M0 0 C38.61 0 77.22 0 117 0 C108.95603312 16.08793375 108.95603312 16.08793375 105.3125 22.125 C104.89516602 22.82616943 104.47783203 23.52733887 104.04785156 24.24975586 C102.70435198 26.50336008 101.35326356 28.752247 100 31 C99.06118342 32.5611892 98.12238161 34.12238728 97.18359375 35.68359375 C96.7045459 36.48023438 96.22549805 37.276875 95.73193359 38.09765625 C95.24289551 38.91105469 94.75385742 39.72445312 94.25 40.5625 C93.75064941 41.39265625 93.25129883 42.2228125 92.73681641 43.078125 C81.23660474 62.23424378 70.14732664 81.63711719 59 101 C57.87109501 97.61328504 58.13569133 96.05125626 58.71264648 92.56640625 C58.89290878 91.45515381 59.07317108 90.34390137 59.25889587 89.19897461 C59.46092117 87.99893799 59.66294647 86.79890137 59.87109375 85.5625 C60.0722731 84.33088135 60.27345245 83.0992627 60.48072815 81.83032227 C61.01654602 78.55580049 61.55832785 75.28238637 62.10339355 72.00939941 C62.87025887 67.39728029 63.62737414 62.78355801 64.38356018 58.16967773 C64.78676129 55.71296636 65.19288341 53.25673232 65.60215759 50.80102539 C65.78557205 49.68977295 65.96898651 48.57852051 66.15795898 47.43359375 C66.32085922 46.45447021 66.48375946 45.47534668 66.65159607 44.46655273 C67.06993149 41.92008748 67.06993149 41.92008748 67 39 C66.36835938 38.64921387 65.73671875 38.29842773 65.0859375 37.93701172 C52.17189038 30.75659683 39.32940929 23.48261179 26.5859375 16.00292969 C17.80242351 10.85771372 8.92674345 5.89167507 0 1 C0 0.67 0 0.34 0 0 Z " fill="#F5A633" transform="translate(223,174)"/>
<path d="M0 0 C9.57 0 19.14 0 29 0 C29 32.01 29 64.02 29 97 C19.43 97 9.86 97 0 97 C0 64.99 0 32.98 0 0 Z " fill="#004562" transform="translate(108,224)"/>
<path d="M0 0 C4.10897287 1.2576107 7.65406986 2.77976192 11.359375 4.94921875 C12.3803125 5.5429126 13.40125 6.13660645 14.453125 6.74829102 C15.54109375 7.38822998 16.6290625 8.02816895 17.75 8.6875 C19.48300062 9.69763751 21.21600679 10.70776564 22.94934082 11.71733093 C24.75295565 12.76864301 26.55521495 13.8222532 28.35742188 14.87597656 C31.94383012 16.97032947 35.54052421 19.04647927 39.140625 21.1171875 C39.71923279 21.45009293 40.29784058 21.78299835 40.89398193 22.12599182 C43.6605411 23.71744336 46.42745546 25.30827709 49.19433594 26.89916992 C55.50281167 30.53475921 61.77089343 34.22997795 68 38 C66.33797061 51.10670545 64.40994909 64.17027828 62.3381958 77.21792603 C62.07083955 78.90740169 61.80631722 80.59732823 61.5446167 82.28768921 C61.1720072 84.68796095 60.78864028 87.08627298 60.40234375 89.484375 C60.29092545 90.21366714 60.17950714 90.94295929 60.06471252 91.6943512 C59.22867623 96.77132377 59.22867623 96.77132377 57 99 C56.58339111 98.26700684 56.16678223 97.53401367 55.73754883 96.77880859 C46.6307691 80.76795851 37.41706506 64.83099258 28 49 C21.1806143 37.51982241 14.40050288 26.01780124 7.71331787 14.46008301 C7.03175265 13.28235841 6.34950611 12.10502783 5.66656494 10.92810059 C4.71687011 9.29060725 3.77046286 7.65120854 2.82421875 6.01171875 C2.27854248 5.06772217 1.73286621 4.12372559 1.1706543 3.15112305 C0 1 0 1 0 0 Z " fill="#75B7D7" transform="translate(223,175)"/>
<path d="M0 0 C0.495 0.99 0.495 0.99 1 2 C-0.16479492 4.47998047 -0.16479492 4.47998047 -1.98046875 7.6171875 C-2.30430038 8.18134369 -2.62813202 8.74549988 -2.96177673 9.32675171 C-4.02907499 11.18088428 -5.10802177 13.02793626 -6.1875 14.875 C-6.93069278 16.15953175 -7.6733652 17.44436469 -8.41552734 18.72949219 C-13.05467139 26.74400562 -17.7755047 34.70874753 -22.56591797 42.63378906 C-34.01271648 61.57464546 -44.95845653 80.82086234 -56 100 C-57.12415734 96.62752798 -56.87441245 95.05536309 -56.3190918 91.58227539 C-56.05838142 89.92023827 -56.05838142 89.92023827 -55.79240417 88.22462463 C-55.49877739 86.42927528 -55.49877739 86.42927528 -55.19921875 84.59765625 C-55.00278275 83.36840927 -54.80634674 82.13916229 -54.60395813 80.87266541 C-54.18618921 78.27034392 -53.76554975 75.66868224 -53.34008789 73.06762695 C-52.79601416 69.73908628 -52.26431871 66.40871136 -51.7364378 63.07756901 C-51.23055865 59.89570885 -50.71447014 56.71551004 -50.19921875 53.53515625 C-49.914701 51.74284325 -49.914701 51.74284325 -49.62443542 49.9143219 C-49.44117203 48.80314499 -49.25790863 47.69196808 -49.0690918 46.54711914 C-48.91063278 45.57021622 -48.75217377 44.59331329 -48.58891296 43.58680725 C-47.27689421 37.82374917 -44.2974033 35.38008873 -39.6875 31.9375 C-38.40852985 30.95915376 -37.13122277 29.97863011 -35.85546875 28.99609375 C-35.20884277 28.49835449 -34.5622168 28.00061523 -33.89599609 27.48779297 C-31.02862222 25.23775738 -28.26327481 22.87584395 -25.5 20.5 C-19.82390348 15.63777163 -13.99235871 10.99873318 -8.09375 6.41015625 C-5.37811836 4.29456948 -2.68266368 2.15714188 0 0 Z " fill="#BA1414" transform="translate(338,175)"/>
<path d="M0 0 C1.21816406 0.03480469 1.21816406 0.03480469 2.4609375 0.0703125 C3.68683594 0.09738281 3.68683594 0.09738281 4.9375 0.125 C5.87722656 0.15980469 5.87722656 0.15980469 6.8359375 0.1953125 C6.91683292 2.96672967 6.97637812 5.73579069 7.0234375 8.5078125 C7.06114258 9.68633789 7.06114258 9.68633789 7.09960938 10.88867188 C7.11411133 12.0246582 7.11411133 12.0246582 7.12890625 13.18359375 C7.15247192 14.22833862 7.15247192 14.22833862 7.17651367 15.29418945 C6.72362324 17.82225955 5.90643458 18.70820373 3.8359375 20.1953125 C0.1484375 19.8828125 0.1484375 19.8828125 -3.1640625 19.1953125 C-3.4940625 17.8753125 -3.8240625 16.5553125 -4.1640625 15.1953125 C-1.1940625 15.6903125 -1.1940625 15.6903125 1.8359375 16.1953125 C2.1659375 15.5353125 2.4959375 14.8753125 2.8359375 14.1953125 C2.0521875 14.2365625 1.2684375 14.2778125 0.4609375 14.3203125 C-2.1640625 14.1953125 -2.1640625 14.1953125 -4.1640625 12.1953125 C-4.4296875 9.8828125 -4.4296875 9.8828125 -4.4140625 7.1953125 C-4.41921875 6.3084375 -4.424375 5.4215625 -4.4296875 4.5078125 C-4.06851266 1.36346683 -3.19687148 0.28852631 0 0 Z M0.8359375 3.1953125 C0.1759375 3.8553125 -0.4840625 4.5153125 -1.1640625 5.1953125 C-0.84207284 8.29458069 -0.84207284 8.29458069 -0.1640625 11.1953125 C0.8259375 11.1953125 1.8159375 11.1953125 2.8359375 11.1953125 C2.8359375 8.8853125 2.8359375 6.5753125 2.8359375 4.1953125 C2.1759375 3.8653125 1.5159375 3.5353125 0.8359375 3.1953125 Z " fill="#004562" transform="translate(428.1640625,305.8046875)"/>
<path d="M0 0 C1.32 0 2.64 0 4 0 C4.99 2.31 5.98 4.62 7 7 C7.33 4.69 7.66 2.38 8 0 C8.99 0 9.98 0 11 0 C11 6.27 11 12.54 11 19 C9.68 19 8.36 19 7 19 C6.01 16.36 5.02 13.72 4 11 C3.67 13.64 3.34 16.28 3 19 C2.01 19 1.02 19 0 19 C0 12.73 0 6.46 0 0 Z " fill="#004562" transform="translate(354,224)"/>
<path d="M0 0 C1.32 0 2.64 0 4 0 C4 6.27 4 12.54 4 19 C-5 19 -5 19 -7 18 C-7 14.04 -7 10.08 -7 6 C-3.535 5.505 -3.535 5.505 0 5 C0 3.35 0 1.7 0 0 Z M-3 8 C-4.35618499 9.12534105 -4.35618499 9.12534105 -4.0625 12.0625 C-4.041875 13.031875 -4.02125 14.00125 -4 15 C-2.68 15 -1.36 15 0 15 C0 13.02 0 11.04 0 9 C-0.99 8.67 -1.98 8.34 -3 8 Z " fill="#004562" transform="translate(390,224)"/>
<path d="M0 0 C2.97 0 5.94 0 9 0 C11 2 11 2 11.265625 3.875 C11.26046875 4.57625 11.2553125 5.2775 11.25 6 C11.25515625 6.70125 11.2603125 7.4025 11.265625 8.125 C11 10 11 10 9 12 C6.375 12.125 6.375 12.125 4 12 C4 14.31 4 16.62 4 19 C2.68 19 1.36 19 0 19 C0 12.73 0 6.46 0 0 Z M4 3 C4 4.65 4 6.3 4 8 C5.32 8 6.64 8 8 8 C7.67 6.35 7.34 4.7 7 3 C6.01 3 5.02 3 4 3 Z " fill="#004562" transform="translate(354,276)"/>
<path d="M0 0 C0.99 0 1.98 0 3 0 C3 1.32 3 2.64 3 4 C3.94875 4.103125 4.8975 4.20625 5.875 4.3125 C9 5 9 5 11 8 C11.32214498 11.54359483 11.3578232 14.12780596 10 17.4375 C8 19 8 19 0 19 C0 12.73 0 6.46 0 0 Z M3 8 C3 10.31 3 12.62 3 15 C4.32 15 5.64 15 7 15 C7 12.69 7 10.38 7 8 C5.68 8 4.36 8 3 8 Z " fill="#004562" transform="translate(383,276)"/>
<path d="M0 0 C0.99 0 1.98 0 3 0 C3 6.27 3 12.54 3 19 C0.03 19 -2.94 19 -6 19 C-8.53637054 15.19544419 -8.59473663 12.46052469 -8 8 C-6.8125 6 -6.8125 6 -5 5 C-2.3125 4.8125 -2.3125 4.8125 0 5 C0 3.35 0 1.7 0 0 Z M-3 8 C-4.41577477 9.18424326 -4.41577477 9.18424326 -4.0625 12.5625 C-4.041875 13.696875 -4.02125 14.83125 -4 16 C-2.68 15.67 -1.36 15.34 0 15 C0 13.02 0 11.04 0 9 C-0.99 8.67 -1.98 8.34 -3 8 Z " fill="#004562" transform="translate(487,301)"/>
<path d="M0 0 C0.99 0 1.98 0 3 0 C3 6.27 3 12.54 3 19 C0.03 19 -2.94 19 -6 19 C-7.96811006 15.06377988 -8.24057392 14.3439424 -7.6875 10.3125 C-7.58824219 9.52488281 -7.48898437 8.73726562 -7.38671875 7.92578125 C-7 6 -7 6 -6 5 C-4.00041636 4.95919217 -1.99954746 4.95745644 0 5 C0 3.35 0 1.7 0 0 Z M-3 8 C-4.35618499 9.12534105 -4.35618499 9.12534105 -4.0625 12.0625 C-4.041875 13.031875 -4.02125 14.00125 -4 15 C-2.68 15 -1.36 15 0 15 C0 13.02 0 11.04 0 9 C-0.99 8.67 -1.98 8.34 -3 8 Z " fill="#004562" transform="translate(473,224)"/>
<path d="M0 0 C1.32 0 2.64 0 4 0 C4.99 3.63 5.98 7.26 7 11 C7.99 7.37 8.98 3.74 10 0 C10.99 0 11.98 0 13 0 C12.46048934 6.68993219 11.11293829 12.63460728 9 19 C7.35 19 5.7 19 4 19 C3.32900016 16.39688008 2.66304662 13.79264602 2 11.1875 C1.80921875 10.44951172 1.6184375 9.71152344 1.421875 8.95117188 C0.64737086 5.89464659 0 3.16626522 0 0 Z " fill="#004562" transform="translate(353,301)"/>
<path d="M0 0 C2.9375 0.8125 2.9375 0.8125 4.9375 3.8125 C5.26533949 7.41873435 5.34093025 9.93840113 3.8125 13.25 C1.9375 14.8125 1.9375 14.8125 -1.125 15.1875 C-4.0625 14.8125 -4.0625 14.8125 -6.0625 12.8125 C-6.36328125 10.28125 -6.36328125 10.28125 -6.375 7.3125 C-6.39175781 6.3328125 -6.40851563 5.353125 -6.42578125 4.34375 C-6.30589844 3.5084375 -6.18601562 2.673125 -6.0625 1.8125 C-3.0625 -0.1875 -3.0625 -0.1875 0 0 Z M-2.0625 3.8125 C-2.3925 4.4725 -2.7225 5.1325 -3.0625 5.8125 C-1.7425 5.8125 -0.4225 5.8125 0.9375 5.8125 C0.9375 5.1525 0.9375 4.4925 0.9375 3.8125 C-0.0525 3.8125 -1.0425 3.8125 -2.0625 3.8125 Z M-3.0625 8.8125 C-3.0625 9.4725 -3.0625 10.1325 -3.0625 10.8125 C-1.7425 10.8125 -0.4225 10.8125 0.9375 10.8125 C0.9375 10.1525 0.9375 9.4925 0.9375 8.8125 C-0.3825 8.8125 -1.7025 8.8125 -3.0625 8.8125 Z " fill="#004562" transform="translate(458.0625,280.1875)"/>
<path d="M0 0 C1.670625 0.4021875 1.670625 0.4021875 3.375 0.8125 C4.53843227 3.13936453 4.57395988 4.65971413 4.625 7.25 C4.66367187 8.42369141 4.66367187 8.42369141 4.703125 9.62109375 C4.375 11.8125 4.375 11.8125 3.0859375 13.609375 C1.375 14.8125 1.375 14.8125 -2.25 14.625 C-3.36375 14.356875 -4.4775 14.08875 -5.625 13.8125 C-6.78843227 11.48563547 -6.82395988 9.96528587 -6.875 7.375 C-6.91367187 6.20130859 -6.91367187 6.20130859 -6.953125 5.00390625 C-6.625 2.8125 -6.625 2.8125 -5.3359375 1.015625 C-3.625 -0.1875 -3.625 -0.1875 0 0 Z M-2.625 3.8125 C-2.955 4.4725 -3.285 5.1325 -3.625 5.8125 C-1.975 5.8125 -0.325 5.8125 1.375 5.8125 C1.045 5.1525 0.715 4.4925 0.375 3.8125 C-0.615 3.8125 -1.605 3.8125 -2.625 3.8125 Z M-3.625 8.8125 C-2.635 9.8025 -1.645 10.7925 -0.625 11.8125 C-0.295 10.8225 0.035 9.8325 0.375 8.8125 C-0.945 8.8125 -2.265 8.8125 -3.625 8.8125 Z " fill="#004562" transform="translate(430.625,280.1875)"/>
<path d="M0 0 C0.99 0 1.98 0 3 0 C3.33 2.31 3.66 4.62 4 7 C4.4125 6.505 4.825 6.01 5.25 5.5 C7 4 7 4 11 4 C10.505 5.11375 10.505 5.11375 10 6.25 C8.77217129 9.13883312 8.77217129 9.13883312 9 13 C9.99 14.485 9.99 14.485 11 16 C11 16.99 11 17.98 11 19 C9.68 19 8.36 19 7 19 C6.34 17.35 5.68 15.7 5 14 C4.34 14 3.68 14 3 14 C3 15.65 3 17.3 3 19 C2.01 19 1.02 19 0 19 C0 12.73 0 6.46 0 0 Z " fill="#004562" transform="translate(438,276)"/>
<path d="M0 0 C3.5 -0.375 3.5 -0.375 7 0 C9.28062828 3.42094242 9.21925007 4.68187222 9.125 8.6875 C9.10695313 9.68136719 9.08890625 10.67523438 9.0703125 11.69921875 C9.03550781 12.83810547 9.03550781 12.83810547 9 14 C7.35425434 14.02688151 5.70838587 14.04634123 4.0625 14.0625 C3.14597656 14.07410156 2.22945313 14.08570313 1.28515625 14.09765625 C-1 14 -1 14 -2 13 C-2.04443347 11.00049364 -2.03920815 8.99961564 -2 7 C-2 5.68 -2 4.36 -2 3 C-1.34 2.01 -0.68 1.02 0 0 Z M3 3 C2.67 3.66 2.34 4.32 2 5 C2.99 5 3.98 5 5 5 C5 4.34 5 3.68 5 3 C4.34 3 3.68 3 3 3 Z M2 8 C2 8.99 2 9.98 2 11 C2.99 10.67 3.98 10.34 5 10 C5 9.34 5 8.68 5 8 C4.01 8 3.02 8 2 8 Z " fill="#004562" transform="translate(440,229)"/>
<path d="M0 0 C0.99 0 1.98 0 3 0 C3 1.65 3 3.3 3 5 C4.423125 4.9071875 4.423125 4.9071875 5.875 4.8125 C6.90625 4.874375 7.9375 4.93625 9 5 C11.28062828 8.42094242 11.21925007 9.68187222 11.125 13.6875 C11.10695313 14.68136719 11.08890625 15.67523438 11.0703125 16.69921875 C11.03550781 17.83810547 11.03550781 17.83810547 11 19 C9.68 19 8.36 19 7 19 C6.67 15.7 6.34 12.4 6 9 C5.01 9.495 5.01 9.495 4 10 C3.53348793 12.12576782 3.53348793 12.12576782 3.375 14.5625 C3.30023438 15.38878906 3.22546875 16.21507812 3.1484375 17.06640625 C3.09945313 17.70449219 3.05046875 18.34257812 3 19 C2.01 19 1.02 19 0 19 C0 12.73 0 6.46 0 0 Z " fill="#004562" transform="translate(438,301)"/>
<path d="M0 0 C3.63 0 7.26 0 11 0 C11 1.32 11 2.64 11 4 C10.01 4 9.02 4 8 4 C8 7.96 8 11.92 8 16 C8.99 16 9.98 16 11 16 C11 16.99 11 17.98 11 19 C7.37 19 3.74 19 0 19 C0 18.01 0 17.02 0 16 C1.32 16 2.64 16 4 16 C4 12.04 4 8.08 4 4 C2.68 4 1.36 4 0 4 C0 2.68 0 1.36 0 0 Z " fill="#004562" transform="translate(354,250)"/>
<path d="M0 0 C3.0625 0.3125 3.0625 0.3125 4.9375 1.5 C6.41031139 3.87286279 6.28473194 5.57163944 6.0625 8.3125 C3.4225 8.3125 0.7825 8.3125 -1.9375 8.3125 C-1.6075 8.9725 -1.2775 9.6325 -0.9375 10.3125 C2.5275 9.8175 2.5275 9.8175 6.0625 9.3125 C5.4025 10.9625 4.7425 12.6125 4.0625 14.3125 C-2.08984375 14.41015625 -2.08984375 14.41015625 -3.9375 14.3125 C-5.67599628 12.57400372 -5.10966296 10.2338363 -5.125 7.875 C-5.13917969 6.88628906 -5.15335937 5.89757812 -5.16796875 4.87890625 C-4.82347287 1.04274027 -3.76450401 0.40047915 0 0 Z M-0.9375 3.3125 C-1.2675 3.9725 -1.5975 4.6325 -1.9375 5.3125 C-0.6175 4.9825 0.7025 4.6525 2.0625 4.3125 C1.0725 3.9825 0.0825 3.6525 -0.9375 3.3125 Z " fill="#004562" transform="translate(456.9375,305.6875)"/>
<path d="M0 0 C3.0625 0.3125 3.0625 0.3125 4.9375 1.5 C6.41031139 3.87286279 6.28473194 5.57163944 6.0625 8.3125 C3.4225 8.3125 0.7825 8.3125 -1.9375 8.3125 C-1.6075 8.9725 -1.2775 9.6325 -0.9375 10.3125 C2.5275 9.8175 2.5275 9.8175 6.0625 9.3125 C5.4025 10.9625 4.7425 12.6125 4.0625 14.3125 C-2.08984375 14.41015625 -2.08984375 14.41015625 -3.9375 14.3125 C-5.67599628 12.57400372 -5.10966296 10.2338363 -5.125 7.875 C-5.13917969 6.88628906 -5.15335937 5.89757812 -5.16796875 4.87890625 C-4.82347287 1.04274027 -3.76450401 0.40047915 0 0 Z M-0.9375 3.3125 C-1.2675 3.9725 -1.5975 4.6325 -1.9375 5.3125 C-0.6175 4.9825 0.7025 4.6525 2.0625 4.3125 C1.0725 3.9825 0.0825 3.6525 -0.9375 3.3125 Z " fill="#004562" transform="translate(373.9375,305.6875)"/>
<path d="M0 0 C3.5 -0.3125 3.5 -0.3125 7 0 C9 2 9 2 9.125 5.125 C9.08375 6.07375 9.0425 7.0225 9 8 C6.69 8 4.38 8 2 8 C2.33 8.66 2.66 9.32 3 10 C4.98 9.67 6.96 9.34 9 9 C8.125 12.875 8.125 12.875 7 14 C3.5625 14.25 3.5625 14.25 0 14 C-1.99825961 11.00261059 -2.27550398 10.36652492 -2.25 7 C-2.25515625 6.319375 -2.2603125 5.63875 -2.265625 4.9375 C-2 3 -2 3 0 0 Z M3 3 C2.67 3.66 2.34 4.32 2 5 C3.32 4.67 4.64 4.34 6 4 C5.01 3.67 4.02 3.34 3 3 Z " fill="#004562" transform="translate(398,229)"/>
<path d="M0 0 C1.7325 0.1546875 1.7325 0.1546875 3.5 0.3125 C5.6519437 3.54041555 5.70086443 4.59650809 5.5 8.3125 C2.86 8.3125 0.22 8.3125 -2.5 8.3125 C-2.17 8.9725 -1.84 9.6325 -1.5 10.3125 C1.965 9.8175 1.965 9.8175 5.5 9.3125 C4.84 10.9625 4.18 12.6125 3.5 14.3125 C0.125 14.4375 0.125 14.4375 -3.5 14.3125 C-5.5 12.3125 -5.5 12.3125 -5.765625 10 C-5.76046875 9.113125 -5.7553125 8.22625 -5.75 7.3125 C-5.75515625 6.425625 -5.7603125 5.53875 -5.765625 4.625 C-5.3037537 0.60400279 -3.8739515 0.34588853 0 0 Z M-1.5 3.3125 C-1.83 3.9725 -2.16 4.6325 -2.5 5.3125 C-1.18 4.9825 0.14 4.6525 1.5 4.3125 C0.51 3.9825 -0.48 3.6525 -1.5 3.3125 Z " fill="#004562" transform="translate(374.5,228.6875)"/>
<path d="M0 0 C0.99 0 1.98 0 3 0 C3 3.63 3 7.26 3 11 C4.32 11 5.64 11 7 11 C7 7.37 7 3.74 7 0 C8.32 0 9.64 0 11 0 C11 4.95 11 9.9 11 15 C4.1640625 15.1953125 4.1640625 15.1953125 2 15 C0 13 0 13 -0.1953125 9.9609375 C-0.17210937 8.77757812 -0.14890625 7.59421875 -0.125 6.375 C-0.10695313 5.18648438 -0.08890625 3.99796875 -0.0703125 2.7734375 C-0.04710937 1.85820312 -0.02390625 0.94296875 0 0 Z " fill="#004562" transform="translate(369,280)"/>
<path d="M0 0 C3.5625 0.1875 3.5625 0.1875 5.5625 2.1875 C5.125 4.25 5.125 4.25 4.5625 6.1875 C4.8925 6.5175 5.2225 6.8475 5.5625 7.1875 C5.6875 10.1875 5.6875 10.1875 5.5625 13.1875 C4.5625 14.1875 4.5625 14.1875 2.71484375 14.28515625 C0.6640625 14.25260417 -1.38671875 14.22005208 -3.4375 14.1875 C-4.0975 12.5375 -4.7575 10.8875 -5.4375 9.1875 C-0.6875 10.0625 -0.6875 10.0625 1.5625 11.1875 C1.5625 10.5275 1.5625 9.8675 1.5625 9.1875 C-0.4175 8.5275 -2.3975 7.8675 -4.4375 7.1875 C-4.48004356 5.18795254 -4.47830783 3.18708364 -4.4375 1.1875 C-3.4375 0.1875 -3.4375 0.1875 0 0 Z M-0.4375 3.1875 C-0.4375 3.8475 -0.4375 4.5075 -0.4375 5.1875 C0.5525 4.8575 1.5425 4.5275 2.5625 4.1875 C1.5725 3.8575 0.5825 3.5275 -0.4375 3.1875 Z " fill="#004562" transform="translate(484.4375,228.8125)"/>
<path d="M0 0 C3 0.25 3 0.25 5 2.25 C4.835 2.848125 4.67 3.44625 4.5 4.0625 C3.75373687 6.35524999 3.75373687 6.35524999 5.0625 8.8125 C5.371875 9.616875 5.68125 10.42125 6 11.25 C5.01 12.735 5.01 12.735 4 14.25 C2.0546875 14.54296875 2.0546875 14.54296875 -0.125 14.4375 C-2.043125 14.3446875 -2.043125 14.3446875 -4 14.25 C-4.33 12.6 -4.66 10.95 -5 9.25 C-2.03 9.745 -2.03 9.745 1 10.25 C-0.98 9.26 -2.96 8.27 -5 7.25 C-5.125 4.875 -5.125 4.875 -5 2.25 C-3 0.25 -3 0.25 0 0 Z M-1 3.25 C-1 3.91 -1 4.57 -1 5.25 C-0.01 4.92 0.98 4.59 2 4.25 C1.01 3.92 0.02 3.59 -1 3.25 Z " fill="#004562" transform="translate(388,254.75)"/>
<path d="M0 0 C2.31 0 4.62 0 7 0 C7 4.95 7 9.9 7 15 C7.99 15 8.98 15 10 15 C10 16.32 10 17.64 10 19 C6.37 19 2.74 19 -1 19 C-1 17.68 -1 16.36 -1 15 C0.32 15 1.64 15 3 15 C3 11.04 3 7.08 3 3 C2.01 3 1.02 3 0 3 C0 2.01 0 1.02 0 0 Z " fill="#004562" transform="translate(397,276)"/>
<path d="M0 0 C0.99 0 1.98 0 3 0 C3.33 3.3 3.66 6.6 4 10 C4.66 10 5.32 10 6 10 C6.33 6.7 6.66 3.4 7 0 C8.32 0 9.64 0 11 0 C11 4.62 11 9.24 11 14 C3.28515625 14.09765625 3.28515625 14.09765625 1 14 C0 13 0 13 -0.09765625 10.05859375 C-0.08605469 8.86363281 -0.07445312 7.66867187 -0.0625 6.4375 C-0.05347656 5.23996094 -0.04445313 4.04242188 -0.03515625 2.80859375 C-0.02355469 1.88175781 -0.01195312 0.95492187 0 0 Z " fill="#004562" transform="translate(452,255)"/>
<path d="M0 0 C2.31 0 4.62 0 7 0 C7 5.28 7 10.56 7 16 C7.99 16 8.98 16 10 16 C10 16.99 10 17.98 10 19 C6.37 19 2.74 19 -1 19 C-1 18.01 -1 17.02 -1 16 C0.32 16 1.64 16 3 16 C3 12.04 3 8.08 3 4 C2.01 4 1.02 4 0 4 C0 2.68 0 1.36 0 0 Z " fill="#004562" transform="translate(397,301)"/>
<path d="M0 0 C1.32 0 2.64 0 4 0 C3.67 4.95 3.34 9.9 3 15 C4.32 15 5.64 15 7 15 C7 16.32 7 17.64 7 19 C3.37 19 -0.26 19 -4 19 C-4 17.68 -4 16.36 -4 15 C-2.68 15 -1.36 15 0 15 C0 12.69 0 10.38 0 8 C-1.32 8 -2.64 8 -4 8 C-4 6.68 -4 5.36 -4 4 C-2.68 4 -1.36 4 0 4 C0 2.68 0 1.36 0 0 Z " fill="#004562" transform="translate(414,276)"/>
<path d="M0 0 C6.8359375 -0.29296875 6.8359375 -0.29296875 9 0 C11.28062828 3.42094242 11.21925007 4.68187222 11.125 8.6875 C11.10695313 9.68136719 11.08890625 10.67523438 11.0703125 11.69921875 C11.03550781 12.83810547 11.03550781 12.83810547 11 14 C9.68 14 8.36 14 7 14 C6.67 10.7 6.34 7.4 6 4 C5.01 4 4.02 4 3 4 C3 7.3 3 10.6 3 14 C2.01 14 1.02 14 0 14 C0 9.38 0 4.76 0 0 Z " fill="#004562" transform="translate(369,255)"/>
<path d="M0 0 C1.32 0 2.64 0 4 0 C4 1.32 4 2.64 4 4 C5.32 4 6.64 4 8 4 C8 4.99 8 5.98 8 7 C6.68 7 5.36 7 4 7 C4 9.64 4 12.28 4 15 C4.66 15 5.32 15 6 15 C6 14.34 6 13.68 6 13 C7.32 13 8.64 13 10 13 C9.125 16.875 9.125 16.875 8 18 C5.0625 18.25 5.0625 18.25 2 18 C-0.67927341 13.98108988 -0.15601248 11.75838077 0 7 C-0.66 7 -1.32 7 -2 7 C-2 6.01 -2 5.02 -2 4 C-1.34 4 -0.68 4 0 4 C0 2.68 0 1.36 0 0 Z " fill="#004562" transform="translate(398,251)"/>
<path d="M0 0 C0.99 0 1.98 0 3 0 C3.33 3.3 3.66 6.6 4 10 C4.99 10.33 5.98 10.66 7 11 C7 7.37 7 3.74 7 0 C8.32 0 9.64 0 11 0 C11 4.62 11 9.24 11 14 C4.1640625 14.1953125 4.1640625 14.1953125 2 14 C0 12 0 12 -0.1953125 9.1796875 C-0.17210937 8.08914063 -0.14890625 6.99859375 -0.125 5.875 C-0.10695313 4.77929688 -0.08890625 3.68359375 -0.0703125 2.5546875 C-0.04710937 1.71164062 -0.02390625 0.86859375 0 0 Z " fill="#004562" transform="translate(438,255)"/>
<path d="M0 0 C6.8359375 -0.29296875 6.8359375 -0.29296875 9 0 C11.28062828 3.42094242 11.21925007 4.68187222 11.125 8.6875 C11.10695313 9.68136719 11.08890625 10.67523438 11.0703125 11.69921875 C11.03550781 12.83810547 11.03550781 12.83810547 11 14 C9.68 14 8.36 14 7 14 C6.67 10.7 6.34 7.4 6 4 C5.34 4 4.68 4 4 4 C3.67 7.3 3.34 10.6 3 14 C2.01 14 1.02 14 0 14 C0 9.38 0 4.76 0 0 Z " fill="#004562" transform="translate(452,229)"/>
<path d="M0 0 C0.99 0 1.98 0 3 0 C3 1.32 3 2.64 3 4 C4.65 4 6.3 4 8 4 C8 4.99 8 5.98 8 7 C6.35 7 4.7 7 3 7 C3.33 9.31 3.66 11.62 4 14 C5.65 13.67 7.3 13.34 9 13 C8.125 16.875 8.125 16.875 7 18 C4 18.125 4 18.125 1 18 C0 17 0 17 -0.09765625 14.71484375 C-0.08605469 13.79832031 -0.07445312 12.88179688 -0.0625 11.9375 C-0.05347656 11.01839844 -0.04445313 10.09929687 -0.03515625 9.15234375 C-0.02355469 8.44207031 -0.01195312 7.73179687 0 7 C-0.99 7 -1.98 7 -3 7 C-3 6.01 -3 5.02 -3 4 C-2.01 4 -1.02 4 0 4 C0 2.68 0 1.36 0 0 Z " fill="#004562" transform="translate(468,251)"/>
<path d="M0 0 C0.99 0 1.98 0 3 0 C3 1.32 3 2.64 3 4 C4.65 4 6.3 4 8 4 C8 4.99 8 5.98 8 7 C6.35 7 4.7 7 3 7 C3.66 9.31 4.32 11.62 5 14 C6.32 13.67 7.64 13.34 9 13 C8.67 14.65 8.34 16.3 8 18 C5.125 18.125 5.125 18.125 2 18 C0 16 0 16 -0.1953125 13.8359375 C-0.17210937 13.02382813 -0.14890625 12.21171875 -0.125 11.375 C-0.10695313 10.55773437 -0.08890625 9.74046875 -0.0703125 8.8984375 C-0.04710937 8.27195312 -0.02390625 7.64546875 0 7 C-0.66 7 -1.32 7 -2 7 C-2 6.01 -2 5.02 -2 4 C-1.34 4 -0.68 4 0 4 C0 2.68 0 1.36 0 0 Z " fill="#004562" transform="translate(426,251)"/>
<path d="M0 0 C2.31 0 4.62 0 7 0 C7 5.28 7 10.56 7 16 C8.32 16 9.64 16 11 16 C11 16.99 11 17.98 11 19 C7.37 19 3.74 19 0 19 C0 18.01 0 17.02 0 16 C1.32 16 2.64 16 4 16 C4 12.04 4 8.08 4 4 C2.68 4 1.36 4 0 4 C0 2.68 0 1.36 0 0 Z " fill="#004562" transform="translate(424,224)"/>
<path d="M0 0 C2.31 0 4.62 0 7 0 C7 3.63 7 7.26 7 11 C7.99 11 8.98 11 10 11 C10 11.99 10 12.98 10 14 C6.7 14 3.4 14 0 14 C0 13.01 0 12.02 0 11 C0.99 11 1.98 11 3 11 C3 8.36 3 5.72 3 3 C2.01 3 1.02 3 0 3 C0 2.01 0 1.02 0 0 Z " fill="#004562" transform="translate(466,306)"/>
<path d="M0 0 C2.31 0 4.62 0 7 0 C7 3.63 7 7.26 7 11 C7.99 11 8.98 11 10 11 C10 11.99 10 12.98 10 14 C6.7 14 3.4 14 0 14 C0 13.01 0 12.02 0 11 C0.99 11 1.98 11 3 11 C3 8.36 3 5.72 3 3 C2.01 3 1.02 3 0 3 C0 2.01 0 1.02 0 0 Z " fill="#004562" transform="translate(383,306)"/>
<path d="M0 0 C2.97 0 5.94 0 9 0 C9.66 1.65 10.32 3.3 11 5 C8.03 4.505 8.03 4.505 5 4 C4.67 7.3 4.34 10.6 4 14 C2.68 14 1.36 14 0 14 C0 9.38 0 4.76 0 0 Z " fill="#004562" transform="translate(411,229)"/>
<path d="M0 0 C2.31 0 4.62 0 7 0 C7 3.63 7 7.26 7 11 C8.32 11 9.64 11 11 11 C11 11.99 11 12.98 11 14 C7.37 14 3.74 14 0 14 C0 13.01 0 12.02 0 11 C1.32 11 2.64 11 4 11 C4 8.36 4 5.72 4 3 C2.68 3 1.36 3 0 3 C0 2.01 0 1.02 0 0 Z " fill="#004562" transform="translate(410,306)"/>
<path d="M0 0 C2.31 0 4.62 0 7 0 C7 3.63 7 7.26 7 11 C8.32 11 9.64 11 11 11 C11 11.99 11 12.98 11 14 C7.37 14 3.74 14 0 14 C0 13.01 0 12.02 0 11 C1.32 11 2.64 11 4 11 C4 8.36 4 5.72 4 3 C2.68 3 1.36 3 0 3 C0 2.01 0 1.02 0 0 Z " fill="#004562" transform="translate(410,255)"/>
<path d="M0 0 C1.32 0 2.64 0 4 0 C4 1.32 4 2.64 4 4 C2.68 4 1.36 4 0 4 C0 2.68 0 1.36 0 0 Z " fill="#004562" transform="translate(469,301)"/>
<path d="M0 0 C1.32 0 2.64 0 4 0 C4 1.32 4 2.64 4 4 C2.68 4 1.36 4 0 4 C0 2.68 0 1.36 0 0 Z " fill="#004562" transform="translate(414,301)"/>
<path d="M0 0 C1.32 0 2.64 0 4 0 C4 1.32 4 2.64 4 4 C2.68 4 1.36 4 0 4 C0 2.68 0 1.36 0 0 Z " fill="#004562" transform="translate(386,301)"/>
<path d="M0 0 C1.32 0 2.64 0 4 0 C4 1.32 4 2.64 4 4 C2.68 4 1.36 4 0 4 C0 2.68 0 1.36 0 0 Z " fill="#004562" transform="translate(414,250)"/>
</svg>
